<?xml version="1.0" encoding="utf-8"?>
<!-- Generator: Adobe Illustrator 22.0.1, SVG Export Plug-In . SVG Version: 6.00 Build 0)  -->
<svg version="1.1" xmlns="http://www.w3.org/2000/svg" xmlns:xlink="http://www.w3.org/1999/xlink" x="0px" y="0px"
	 viewBox="0 0 1920 1080" style="enable-background:new 0 0 1920 1080;" xml:space="preserve">
<style type="text/css">
	.st0{fill:none;stroke:#512D14;stroke-miterlimit:10;}
	.st1{display:none;}
	.st2{fill:#0000CC;}
	.st3{fill:#0A06B7;}
	.st4{fill:#E50520;}
	.st5{fill:#2F7708;}
	.st6{fill:#FFFF0B;}
	.st7{fill:#9504A5;}
	.st8{fill:#03D2F4;}
	.st9{fill:none;stroke:#4C2E0A;stroke-width:5;stroke-miterlimit:10;}
	.st10{fill:#69E7F4;}
	.st11{fill:#007999;}
	.st12{fill:none;stroke:#EABBE9;stroke-width:5;stroke-miterlimit:10;}
	.st13{fill:#F76A00;}
	.st14{fill:#00FF2A;}
	.st15{fill:#686868;}
	.st16{fill:#656570;stroke:#000000;stroke-miterlimit:10;}
	.st17{fill:#FFFFFF;stroke:#0000CC;stroke-miterlimit:10;}
	.st18{fill:#FDFDFF;stroke:#0000CC;stroke-miterlimit:10;}
	.st19{fill:#FFFFFF;stroke:#E50520;stroke-miterlimit:10;}
	.st20{fill:#FFFFFF;stroke:#2F7708;stroke-miterlimit:10;}
	.st21{fill:#FFFFFF;stroke:#FFFF0B;stroke-miterlimit:10;}
	.st22{fill:#FFFFFF;stroke:#00FF2A;stroke-miterlimit:10;}
	.st23{fill:#FFFFFF;stroke:#F76A00;stroke-miterlimit:10;}
	.st24{fill:#FFFFFF;stroke:#686868;stroke-miterlimit:10;}
	.st25{fill:#FFFFFF;stroke:#9504A5;stroke-miterlimit:10;}
	.st26{fill:#FFFFFF;stroke:#03D2F4;stroke-miterlimit:10;}
	.st27{fill:#FFFFFF;stroke:#69E7F4;stroke-miterlimit:10;}
	.st28{fill:#FFFFFF;stroke:#007999;stroke-miterlimit:10;}
	.st29{fill:#FFFFFF;stroke:#512D14;stroke-miterlimit:10;}
	.st30{fill:#FFFFFF;stroke:#EABBE9;stroke-miterlimit:10;}
</style>
<g id="Фон">
	<rect x="1.9" y="-0.6" class="st0" width="1920" height="1107.1"/>
</g>
<g id="Референс" class="st1">
</g>
<g id="Ветки">
	<g id="Ветка_синия">
		<rect x="343.8" y="234" class="st2" width="4.4" height="17.8"/>
		<rect x="343.8" y="251.8" class="st3" width="4.4" height="17.8"/>
		<rect x="343.8" y="269.6" class="st3" width="4.4" height="17.8"/>
		<rect x="343.8" y="287.3" class="st3" width="4.4" height="19.5"/>
		<rect x="343.8" y="305.7" class="st3" width="4.4" height="17.8"/>
		<rect x="343.8" y="323.5" class="st3" width="4.4" height="17.8"/>
		<rect x="343.8" y="341.3" class="st3" width="4.4" height="17.8"/>
		<rect x="343.8" y="359.1" class="st3" width="4.4" height="42.9"/>
		<g>
			
				<rect x="360.6" y="491" transform="matrix(0.6458 -0.7635 0.7635 0.6458 -263.9655 459.0293)" class="st3" width="4.4" height="45.9"/>
			<rect x="343.8" y="402" class="st3" width="4.4" height="98.8"/>
			
				<rect x="387.7" y="517.3" transform="matrix(6.123234e-17 -1 1 6.123234e-17 -138.4195 918.2472)" class="st3" width="4.4" height="22"/>
		</g>
		<g>
			
				<rect x="517.5" y="390.6" transform="matrix(-0.7071 -0.7071 0.7071 -0.7071 553.6808 1172.5952)" class="st3" width="4.4" height="162.1"/>
			
				<rect x="430.2" y="496.8" transform="matrix(6.123234e-17 -1 1 6.123234e-17 -95.8923 960.7336)" class="st3" width="4.4" height="63"/>
			
				<rect x="584.7" y="403.5" transform="matrix(6.123234e-17 -1 1 6.123234e-17 171.9009 1001.8072)" class="st3" width="4.4" height="22.8"/>
		</g>
		
			<rect x="616.1" y="405.4" transform="matrix(0.7071 -0.7071 0.7071 0.7071 -127.1238 564.8655)" class="st3" width="4.4" height="61"/>
		
			<rect x="664.8" y="446.2" transform="matrix(0.7071 -0.7071 0.7071 0.7071 -147.2795 613.5256)" class="st3" width="4.4" height="76.6"/>
		<g>
			
				<rect x="738" y="460.6" transform="matrix(-0.7071 -0.7071 0.7071 -0.7071 916.7636 1360.7412)" class="st3" width="4.4" height="59.8"/>
			
				<rect x="704.3" y="497" transform="matrix(6.123234e-17 -1 1 6.123234e-17 195.5313 1217.5313)" class="st3" width="4.4" height="28.1"/>
		</g>
		
			<rect x="765.8" y="461.8" transform="matrix(6.123234e-17 -1 1 6.123234e-17 297.9688 1237.9688)" class="st3" width="4.4" height="16.3"/>
		
			<rect x="1068.1" y="333.5" transform="matrix(-0.7071 -0.7071 0.7071 -0.7071 1582.4181 1347.3774)" class="st3" width="4.4" height="24.9"/>
		
			<rect x="1042.2" y="347.7" transform="matrix(-0.7071 -0.7071 0.7071 -0.7071 1519.8984 1373.2739)" class="st3" width="4.4" height="48.3"/>
		
			<rect x="1013.9" y="384.3" transform="matrix(-0.7071 -0.7071 0.7071 -0.7071 1451.6969 1401.5239)" class="st3" width="4.4" height="31.6"/>
		
			<rect x="989.4" y="405.8" transform="matrix(-0.7071 -0.7071 0.7071 -0.7071 1392.5627 1426.0181)" class="st3" width="4.4" height="37.7"/>
		<g>
			
				<rect x="859.4" y="384.5" transform="matrix(6.123234e-17 -1 1 6.123234e-17 391.6252 1331.6252)" class="st3" width="4.4" height="171"/>
			
				<rect x="959.7" y="431.1" transform="matrix(-0.7071 -0.7071 0.7071 -0.7071 1320.9023 1455.7008)" class="st3" width="4.4" height="46.3"/>
		</g>
		<g>
			
				<rect x="1082.2" y="324.4" transform="matrix(-0.7071 -0.7071 0.7071 -0.7071 1616.4624 1333.2758)" class="st3" width="4.4" height="14.9"/>
			
				<rect x="1086.8" y="299.6" transform="matrix(-1 -1.224647e-16 1.224647e-16 -1 2178 627.6969)" class="st3" width="4.4" height="28.5"/>
		</g>
		
			<rect x="1086.8" y="280.9" transform="matrix(-1 -1.224647e-16 1.224647e-16 -1 2178 580.4678)" class="st3" width="4.4" height="18.7"/>
		
			<rect x="1086.8" y="262.2" transform="matrix(-1 -1.224647e-16 1.224647e-16 -1 2178 543.0322)" class="st3" width="4.4" height="18.7"/>
	</g>
	<g id="Ветка_красная">
		<g>
			<rect x="1007.6" y="199.8" class="st4" width="4.4" height="7.6"/>
			
				<rect x="1002.1" y="203.3" transform="matrix(0.7088 0.7054 -0.7054 0.7088 442.1198 -646.6644)" class="st4" width="4.4" height="17.6"/>
		</g>
		
			<rect x="986" y="214.2" transform="matrix(0.7088 0.7054 -0.7054 0.7088 448.8521 -630.5728)" class="st4" width="4.4" height="28.2"/>
		
			<rect x="968.6" y="235.3" transform="matrix(0.7088 0.7054 -0.7054 0.7088 456.0861 -613.2822)" class="st4" width="4.4" height="20.9"/>
		
			<rect x="953" y="249.7" transform="matrix(0.7088 0.7054 -0.7054 0.7088 462.6061 -597.6979)" class="st4" width="4.4" height="23.4"/>
		
			<rect x="935.4" y="265.9" transform="matrix(0.7088 0.7054 -0.7054 0.7088 469.9482 -580.1488)" class="st4" width="4.4" height="26.5"/>
		
			<rect x="909.4" y="281.2" transform="matrix(0.7088 0.7054 -0.7054 0.7088 480.8291 -554.1414)" class="st4" width="4.4" height="48.2"/>
		
			<rect x="880.9" y="317.6" transform="matrix(0.7088 0.7054 -0.7054 0.7088 492.7165 -525.7282)" class="st4" width="4.4" height="32.6"/>
		
			<rect x="842.5" y="334.3" transform="matrix(0.7088 0.7054 -0.7054 0.7088 508.7477 -487.4103)" class="st4" width="4.4" height="76.3"/>
		
			<rect x="793.9" y="390.5" transform="matrix(0.7088 0.7054 -0.7054 0.7088 529.0615 -438.8563)" class="st4" width="4.4" height="61.6"/>
		
			<rect x="732.1" y="426.6" transform="matrix(0.7088 0.7054 -0.7054 0.7088 554.8488 -377.2197)" class="st4" width="4.4" height="113.6"/>
		
			<rect x="681" y="519.1" transform="matrix(0.7088 0.7054 -0.7054 0.7088 576.1887 -326.213)" class="st4" width="4.4" height="31.3"/>
		
			<rect x="657" y="540.5" transform="matrix(0.7088 0.7054 -0.7054 0.7088 586.2303 -302.2115)" class="st4" width="4.4" height="36.9"/>
		
			<rect x="623.6" y="563.2" transform="matrix(0.7088 0.7054 -0.7054 0.7088 600.1517 -268.9368)" class="st4" width="4.4" height="58.4"/>
		
			<rect x="581.5" y="604.1" transform="matrix(0.7088 0.7054 -0.7054 0.7088 617.7255 -226.9319)" class="st4" width="4.4" height="61.2"/>
		
			<rect x="550.7" y="652.1" transform="matrix(0.7088 0.7054 -0.7054 0.7088 630.605 -196.1473)" class="st4" width="4.4" height="27.3"/>
		
			<rect x="531.5" y="671.2" transform="matrix(0.7088 0.7054 -0.7054 0.7088 638.615 -177.0018)" class="st4" width="4.4" height="27.4"/>
		
			<rect x="513.9" y="691.4" transform="matrix(0.7088 0.7054 -0.7054 0.7088 645.956 -159.4554)" class="st4" width="4.4" height="22.4"/>
		<rect x="506.6" y="709" class="st4" width="4.4" height="24"/>
		<rect x="506.6" y="733" class="st4" width="4.4" height="18.3"/>
		<rect x="506.6" y="751.3" class="st4" width="4.4" height="18.3"/>
		<rect x="506.6" y="769.7" class="st4" width="4.4" height="18.3"/>
	</g>
	<g id="Ветка_зелёная">
		<rect x="639.1" y="53.8" class="st5" width="4.4" height="18.5"/>
		<rect x="639.1" y="72.3" class="st5" width="4.4" height="71.4"/>
		<rect x="639.1" y="143.7" class="st5" width="4.4" height="34.3"/>
		<rect x="639.1" y="178" class="st5" width="4.4" height="18"/>
		<rect x="639.1" y="196" class="st5" width="4.4" height="18"/>
		<rect x="691.2" y="276.4" class="st5" width="4.4" height="78.6"/>
		<rect x="691.2" y="355" class="st5" width="4.4" height="21.7"/>
		<rect x="948.7" y="680.3" class="st5" width="4.4" height="61.1"/>
		<rect x="948.7" y="741.4" class="st5" width="4.4" height="21"/>
		<rect x="948.7" y="762.3" class="st5" width="4.4" height="13.8"/>
		<rect x="948.7" y="776.1" class="st5" width="4.4" height="51.3"/>
		<rect x="948.7" y="827.5" class="st5" width="4.4" height="18.1"/>
		<rect x="948.7" y="845.6" class="st5" width="4.4" height="15.8"/>
		<rect x="948.7" y="861.4" class="st5" width="4.4" height="17.7"/>
		<rect x="967.8" y="894.9" class="st5" width="4.4" height="17"/>
		<g>
			<rect x="639.1" y="213.9" class="st5" width="4.4" height="12.2"/>
			
				<rect x="665.2" y="213.4" transform="matrix(0.7071 -0.7071 0.7071 0.7071 17.7988 545.4955)" class="st5" width="4.4" height="75.7"/>
		</g>
		
			<rect x="731.2" y="358.3" transform="matrix(0.7071 -0.7071 0.7071 0.7071 -79.2473 640.4213)" class="st5" width="4.4" height="115.1"/>
		
			<rect x="803.9" y="442.8" transform="matrix(0.7071 -0.7071 0.7071 0.7071 -109.3356 713.061)" class="st5" width="4.4" height="91.3"/>
		
			<rect x="871.2" y="506.1" transform="matrix(0.7071 -0.7071 0.7071 0.7071 -137.2113 780.3589)" class="st5" width="4.4" height="99.3"/>
		<g>
			<rect x="948.7" y="632.4" class="st5" width="4.4" height="47.9"/>
			
				<rect x="927.9" y="582.2" transform="matrix(0.7071 -0.7071 0.7071 0.7071 -160.7007 837.0672)" class="st5" width="4.4" height="60.7"/>
		</g>
		
			<rect x="957.4" y="873.9" transform="matrix(0.6293 -0.7772 0.7772 0.6293 -333.6598 1074.649)" class="st5" width="4.4" height="26.4"/>
	</g>
	<g id="Ветка_жёлтая">
		
			<rect x="1140" y="388.4" transform="matrix(-0.7071 -0.7071 0.7071 -0.7071 1666.1464 1492.5958)" class="st6" width="4.4" height="25.7"/>
		
			<rect x="1121.9" y="406.5" transform="matrix(-0.7071 -0.7071 0.7071 -0.7071 1622.4641 1510.6896)" class="st6" width="4.4" height="25.7"/>
		
			<rect x="1103.8" y="424.6" transform="matrix(-0.7071 -0.7071 0.7071 -0.7071 1578.6311 1528.8458)" class="st6" width="4.4" height="25.7"/>
		
			<rect x="1079.7" y="440.2" transform="matrix(-0.7071 -0.7071 0.7071 -0.7071 1520.458 1552.9419)" class="st6" width="4.4" height="42.7"/>
		<g>
			
				<rect x="1049.2" y="470.3" transform="matrix(-0.7071 -0.7071 0.7071 -0.7071 1446.835 1583.4375)" class="st6" width="4.4" height="43.6"/>
			
				<rect x="1018.7" y="490.2" transform="matrix(6.123234e-17 -1 1 6.123234e-17 513.988 1527.6895)" class="st6" width="4.4" height="33.3"/>
		</g>
		
			<rect x="973.3" y="478.2" transform="matrix(6.123234e-17 -1 1 6.123234e-17 468.6551 1482.3564)" class="st6" width="4.4" height="57.4"/>
		
			<rect x="890.4" y="452.6" transform="matrix(6.123234e-17 -1 1 6.123234e-17 385.7222 1399.4236)" class="st6" width="4.4" height="108.5"/>
		<rect x="365.4" y="616.2" class="st6" width="4.4" height="23.3"/>
		<rect x="365.4" y="593.8" class="st6" width="4.4" height="22.3"/>
		<rect x="365.4" y="575.7" class="st6" width="4.4" height="18.1"/>
		
			<rect x="381.7" y="536.3" transform="matrix(-0.7071 -0.7071 0.7071 -0.7071 259.1651 1227.9331)" class="st6" width="4.4" height="48"/>
		
			<rect x="483.1" y="339.3" transform="matrix(-0.7071 -0.7071 0.7071 -0.7071 504.0318 1126.506)" class="st6" width="4.4" height="239.1"/>
	</g>
	<g id="Ветка_фиолетовая">
		<rect x="546.6" y="53.9" class="st7" width="4.4" height="18.5"/>
		<rect x="546.6" y="72.3" class="st7" width="4.4" height="18.5"/>
		<rect x="546.6" y="90.8" class="st7" width="4.4" height="18.5"/>
		<rect x="546.6" y="109.2" class="st7" width="4.4" height="16.3"/>
		<rect x="546.6" y="125.5" class="st7" width="4.4" height="120"/>
		
			<rect x="605.6" y="263.9" transform="matrix(0.7071 -0.7071 0.7071 0.7071 -35.6729 518.2529)" class="st7" width="4.4" height="76.6"/>
		
			<rect x="662.7" y="316.8" transform="matrix(0.7071 -0.7071 0.7071 0.7071 -59.3284 575.3622)" class="st7" width="4.4" height="85.1"/>
		
			<rect x="752.8" y="327.3" transform="matrix(6.123234e-17 -1 1 6.123234e-17 366.1502 1143.7665)" class="st7" width="4.4" height="123.1"/>
		
			<rect x="878.7" y="360.8" transform="matrix(0.7071 -0.7071 0.7071 0.7071 -63.1536 755.9268)" class="st7" width="4.4" height="186.7"/>
		
			<rect x="973.3" y="507.8" transform="matrix(0.7071 -0.7071 0.7071 0.7071 -102.3301 850.5071)" class="st7" width="4.4" height="81.9"/>
		
			<rect x="1014.8" y="572.2" transform="matrix(0.7071 -0.7071 0.7071 0.7071 -119.5375 892.0495)" class="st7" width="4.4" height="36.3"/>
		
			<rect x="1049" y="594" transform="matrix(0.7071 -0.7071 0.7071 0.7071 -133.6778 926.1873)" class="st7" width="4.4" height="61"/>
		
			<rect x="1079.9" y="642" transform="matrix(0.7071 -0.7071 0.7071 0.7071 -146.4645 957.0571)" class="st7" width="4.4" height="26.6"/>
		
			<rect x="1097.4" y="661.3" transform="matrix(0.7071 -0.7071 0.7071 0.7071 -153.7449 974.6335)" class="st7" width="4.4" height="23.3"/>
		
			<rect x="553.1" y="248.8" transform="matrix(6.123234e-17 -1 1 6.123234e-17 279.5721 830.9383)" class="st7" width="4.4" height="53.8"/>
		
			<rect x="536.9" y="241.5" transform="matrix(-0.8479 -0.5301 0.5301 -0.8479 858.0491 767.239)" class="st7" width="4.4" height="38.1"/>
		<rect x="1105" y="679.6" class="st7" width="4.4" height="21.6"/>
		<rect x="1105" y="701.2" class="st7" width="4.4" height="18.5"/>
		<rect x="1105" y="719.6" class="st7" width="4.4" height="18.5"/>
		<rect x="1105" y="738" class="st7" width="4.4" height="18.5"/>
	</g>
	<g id="Ветка_голубая">
		
			<rect x="677.6" y="451.3" transform="matrix(0.7071 -0.7071 0.7071 0.7071 -133.4394 618.4457)" class="st8" width="4.4" height="37.9"/>
		
			<rect x="651" y="424.7" transform="matrix(0.7071 -0.7071 0.7071 0.7071 -122.3937 591.779)" class="st8" width="4.4" height="37.9"/>
		
			<rect x="616.5" y="379.3" transform="matrix(0.7071 -0.7071 0.7071 0.7071 -108.13 557.3433)" class="st8" width="4.4" height="59.9"/>
		
			<rect x="581.2" y="353.8" transform="matrix(0.7071 -0.7071 0.7071 0.7071 -93.51 522.0475)" class="st8" width="4.4" height="40.3"/>
		
			<rect x="524" y="315.8" transform="matrix(6.123234e-17 -1 1 6.123234e-17 165.8682 886.4651)" class="st8" width="4.4" height="89.1"/>
		
			<rect x="582.8" y="376" transform="matrix(6.123234e-17 -1 1 6.123234e-17 196.2097 973.8066)" class="st8" width="4.4" height="25.5"/>
		
			<rect x="548.3" y="378.5" transform="matrix(0.7088 0.7054 -0.7054 0.7088 450.6616 -268.4763)" class="st8" width="4.4" height="66.2"/>
		
			<rect x="502.5" y="425.7" transform="matrix(0.7088 0.7054 -0.7054 0.7088 469.8016 -222.7278)" class="st8" width="4.4" height="63.8"/>
		
			<rect x="467.4" y="475" transform="matrix(0.7088 0.7054 -0.7054 0.7088 484.4445 -187.7283)" class="st8" width="4.4" height="35.7"/>
		
			<rect x="420.2" y="468.8" transform="matrix(-1.836970e-16 1 -1 -1.836970e-16 927.2969 82.5312)" class="st8" width="4.4" height="72.2"/>
		<rect x="365.7" y="454.6" class="st8" width="4.4" height="31.8"/>
		<rect x="365.7" y="436.7" class="st8" width="4.4" height="18"/>
		<rect x="365.7" y="418.7" class="st8" width="4.4" height="18"/>
		<rect x="365.7" y="393.1" class="st8" width="4.4" height="25.7"/>
		
			<rect x="375.3" y="480.7" transform="matrix(0.7071 -0.7071 0.7071 0.7071 -239.6118 412.0042)" class="st8" width="4.4" height="29.2"/>
		
			<rect x="354.6" y="366.3" transform="matrix(0.7071 -0.7071 0.7071 0.7071 -166.2578 364.4302)" class="st8" width="4.4" height="33.2"/>
	</g>
	<g id="Ветка_коричневая">
		<path class="st9" d="M712,605.6c22.9,9.7,48.1,15.1,74.5,15.1c13.6,0,26.9-1.4,39.7-4.2"/>
		<path class="st9" d="M597.8,401.1c-1.4,9.4-2.2,19-2.2,28.7c0,49.4,18.8,94.4,49.6,128.3"/>
		<path class="st9" d="M645.3,558.2c18.4,20.3,41.1,36.5,66.7,47.4"/>
		<path class="st9" d="M826.2,616.5c31-6.6,59.2-20.6,82.6-40.2"/>
		<path class="st9" d="M908.8,576.3c14.4-12,27-26.1,37.3-41.9"/>
		<path class="st9" d="M946.1,534.4c15.8-24.1,26.3-52,29.9-82"/>
		<path class="st9" d="M976,452.4c0.9-7.4,1.3-15,1.3-22.6c0-48.8-18.3-93.4-48.5-127.1"/>
		<path class="st9" d="M633.8,315.4c-18.5,24.6-31.2,53.9-36,85.8"/>
		<path class="st9" d="M928.8,302.7c-16.3-18.2-36-33.3-58.1-44.2"/>
		<path class="st9" d="M870.7,258.6c-25.4-12.5-54-19.6-84.2-19.6c-11.4,0-22.5,1-33.3,2.9"/>
		<path class="st9" d="M692.9,263.5c-23.1,13-43.2,30.7-59.1,51.9"/>
		<path class="st9" d="M753.2,241.9c-21.5,3.8-41.8,11.2-60.2,21.6"/>
	</g>
	<g id="Ветка_светлоголубая">
		
			<rect x="752.8" y="940.8" transform="matrix(0.7071 -0.7071 0.7071 0.7071 -453.3289 813.2415)" class="st10" width="4.4" height="26.1"/>
		
			<rect x="773.1" y="958.5" transform="matrix(0.7071 -0.7071 0.7071 0.7071 -461.7383 833.5436)" class="st10" width="4.4" height="31.2"/>
		<rect x="783.5" y="983.6" class="st10" width="4.4" height="19.1"/>
		<rect x="783.5" y="1002.8" class="st10" width="4.4" height="17.5"/>
		<rect x="783.5" y="1020.3" class="st10" width="4.4" height="18.4"/>
		<rect x="783.5" y="1038.7" class="st10" width="4.4" height="19.1"/>
	</g>
	<g id="Ветка_бюрюзовая">
		
			<rect x="851.4" y="788.5" transform="matrix(0.2722 0.9622 -0.9622 0.2722 1406.3387 -227.5826)" class="st11" width="4.4" height="54.9"/>
		
			<rect x="913.2" y="761.5" transform="matrix(0.2722 0.9622 -0.9622 0.2722 1434.4581 -299.6866)" class="st11" width="4.4" height="74"/>
	</g>
	<g id="Ветка_розовая">
		<path class="st12" d="M727.8,124.7c-7.8,1.5-15.6,3.3-23.2,5.4"/>
		<path class="st12" d="M753.1,120.9c-8.5,0.9-16.9,2.2-25.3,3.8"/>
		<path class="st12" d="M704.7,130.1c-8.4,2.3-16.7,5-24.8,7.9"/>
		<path class="st12" d="M568.2,209.2c-10.9,10.8-21,22.3-30.1,34.6"/>
		<path class="st12" d="M870,130.1c-26.4-7.2-54.1-11.1-82.7-11.1c-11.5,0-22.9,0.6-34.2,1.9"/>
		<path class="st12" d="M679.8,138c-13.2,4.9-26.1,10.6-38.4,17.2"/>
		<path class="st12" d="M538,243.8c-3.8,5.1-7.4,10.3-10.9,15.6"/>
		<path class="st12" d="M641.4,155.2c-27,14.4-51.7,32.6-73.3,54"/>
		<path class="st12" d="M1078.8,321c-14.1-37.5-35.1-71.5-61.6-100.6"/>
		<path class="st12" d="M1017.1,220.4c-6.6-7.2-13.5-14.1-20.8-20.7"/>
		<path class="st12" d="M1092.9,371.5c-3.3-17.4-8.1-34.3-14.2-50.5"/>
		<path class="st12" d="M996.3,199.7c-8.9-8.1-18.3-15.6-28.1-22.7"/>
		<path class="st12" d="M968.3,177c-9-6.5-18.4-12.5-28.2-18"/>
		<path class="st12" d="M940.1,159.1c-21.9-12.3-45.4-22.1-70.1-28.9"/>
		<path class="st12" d="M1092.4,492c4-20,6.1-40.6,6.1-61.7c0-20.1-1.9-39.7-5.6-58.7"/>
		<path class="st12" d="M527.1,259.4c-3.5,5.3-6.8,10.7-10,16.2"/>
		<path class="st12" d="M952.7,693.9c10.6-6.7,20.7-13.9,30.4-21.8"/>
		<path class="st12" d="M903.9,718.9c17.1-6.9,33.4-15.3,48.8-25"/>
		<path class="st12" d="M983.2,672.1c16-13,30.8-27.6,44-43.5"/>
		<path class="st12" d="M1084.5,522.8c3.1-10.1,5.8-20.4,7.9-30.9"/>
		<path class="st12" d="M1075.5,547.9c3.3-8.2,6.4-16.5,9-25.1"/>
		<path class="st12" d="M1027.1,628.6c20-24.1,36.3-51.3,48.4-80.7"/>
		<path class="st12" d="M826.4,739.1c27.1-3.4,53.1-10.3,77.5-20.2"/>
		<path class="st12" d="M480.8,375.7c-3.1,17.7-4.8,35.9-4.8,54.5c0,22.7,2.4,44.7,7,66"/>
		<path class="st12" d="M784,741.5c1.1,0,2.2,0,3.2,0c13.3,0,26.4-0.8,39.2-2.4"/>
		<path class="st12" d="M517.1,275.6c-8.3,14.5-15.5,29.8-21.5,45.7"/>
		<path class="st12" d="M495.6,321.2c-6.5,17.5-11.6,35.7-14.9,54.5"/>
		<path class="st12" d="M712.6,732.5c22.9,5.6,46.8,8.7,71.4,9"/>
		<path class="st12" d="M562.5,645.5c40.2,41.9,91.9,72.6,150.2,87"/>
		<path class="st12" d="M483,496.3c12.4,57.2,40.4,108.5,79.4,149.2"/>
	</g>
	<g id="Ветка_рыжая">
		
			<rect x="852.9" y="453.3" transform="matrix(0.7071 0.7071 -0.7071 0.7071 587.6135 -464.9956)" class="st13" width="4.4" height="47.1"/>
		
			<rect x="772.9" y="467" transform="matrix(0.7071 0.7071 -0.7071 0.7071 620.7592 -384.9748)" class="st13" width="4.4" height="179.6"/>
		
			<rect x="717.2" y="894.8" transform="matrix(0.7071 -0.7071 0.7071 0.7071 -429.8206 774.0165)" class="st13" width="4.4" height="22"/>
		
			<rect x="734.9" y="909.5" transform="matrix(0.7071 -0.7071 0.7071 0.7071 -437.1288 791.6602)" class="st13" width="4.4" height="28"/>
		<rect x="710.1" y="876.9" class="st13" width="4.4" height="22.7"/>
		<rect x="710.1" y="854.6" class="st13" width="4.4" height="22.3"/>
		<rect x="710.1" y="832.9" class="st13" width="4.4" height="21.7"/>
		<rect x="710.1" y="810.1" class="st13" width="4.4" height="22.8"/>
		<rect x="710.1" y="788.6" class="st13" width="4.4" height="21.5"/>
		<rect x="710.1" y="766.2" class="st13" width="4.4" height="22.4"/>
		<rect x="710.1" y="746.8" class="st13" width="4.4" height="19.4"/>
		<rect x="710.1" y="670.3" class="st13" width="4.4" height="76.4"/>
		<rect x="710.1" y="618.8" class="st13" width="4.4" height="51.5"/>
		<rect x="868.9" y="333" class="st13" width="4.4" height="128.7"/>
		<rect x="868.9" y="279.6" class="st13" width="4.4" height="53.4"/>
		<rect x="868.9" y="246" class="st13" width="4.4" height="33.6"/>
		<rect x="868.9" y="194.7" class="st13" width="4.4" height="51.3"/>
		<rect x="868.9" y="174.8" class="st13" width="4.4" height="19.9"/>
		<rect x="868.9" y="154.8" class="st13" width="4.4" height="19.9"/>
		<rect x="868.7" y="117.9" class="st13" width="4.4" height="36.9"/>
		<rect x="868.7" y="89.8" class="st13" width="4.4" height="28.2"/>
		<rect x="868.7" y="71.8" class="st13" width="4.4" height="18"/>
		<rect x="868.7" y="54.1" class="st13" width="4.4" height="17.7"/>
	</g>
	<g id="Ветка_светлозелёная">
		
			<rect x="773.1" y="138.7" transform="matrix(0.7071 -0.7071 0.7071 0.7071 122.0379 591.7036)" class="st14" width="4.4" height="19.8"/>
		
			<rect x="824.2" y="250.2" transform="matrix(0.7071 -0.7071 0.7071 0.7071 19.7046 676.4182)" class="st14" width="4.4" height="128.4"/>
		
			<rect x="922.3" y="338" transform="matrix(0.7071 -0.7071 0.7071 0.7071 -20.9415 774.5466)" class="st14" width="4.4" height="149.2"/>
		
			<rect x="988.8" y="459.4" transform="matrix(0.7071 -0.7071 0.7071 0.7071 -48.4764 841.0217)" class="st14" width="4.4" height="39.3"/>
		<rect x="779.4" y="154" class="st14" width="4.4" height="11.1"/>
		<rect x="779.4" y="165.1" class="st14" width="4.4" height="20.6"/>
		<rect x="779.4" y="185.7" class="st14" width="4.4" height="20.6"/>
		<rect x="779.4" y="206.3" class="st14" width="4.4" height="22.5"/>
		<rect x="779.4" y="228.8" class="st14" width="4.4" height="41.7"/>
		<rect x="1002" y="491.3" class="st14" width="4.4" height="72.7"/>
		<rect x="1002" y="563.8" class="st14" width="4.4" height="50.8"/>
		<rect x="981.7" y="633.1" class="st14" width="4.4" height="26.4"/>
		<rect x="981.7" y="659.5" class="st14" width="4.4" height="91.9"/>
		<rect x="981.7" y="751.4" class="st14" width="4.4" height="18.1"/>
		<rect x="981.7" y="769.6" class="st14" width="4.4" height="18"/>
		<rect x="981.7" y="787.6" class="st14" width="4.4" height="18"/>
		<rect x="981.7" y="805.6" class="st14" width="4.4" height="17.8"/>
		<rect x="981.7" y="823.4" class="st14" width="4.4" height="18.1"/>
		<rect x="981.6" y="841.4" class="st14" width="4.4" height="16.7"/>
		<rect x="981.6" y="857.9" class="st14" width="4.4" height="19.3"/>
		<rect x="981.6" y="877.2" class="st14" width="4.4" height="17.7"/>
		
			<rect x="991.9" y="608.6" transform="matrix(0.7071 0.7071 -0.7071 0.7071 732.2814 -520.175)" class="st14" width="4.4" height="30.6"/>
	</g>
	<g id="Ветка_серая">
		<rect x="750.9" y="52.7" class="st15" width="4.4" height="19.1"/>
		<rect x="750.9" y="71.2" class="st15" width="4.4" height="19.1"/>
		<rect x="750.9" y="89.8" class="st15" width="4.4" height="16.3"/>
		<rect x="750.9" y="106" class="st15" width="4.4" height="36.7"/>
		<rect x="750.9" y="142.7" class="st15" width="4.4" height="22.1"/>
		<rect x="750.9" y="164.8" class="st15" width="4.4" height="20.9"/>
		<rect x="750.9" y="185.7" class="st15" width="4.4" height="21.6"/>
		<rect x="750.9" y="207" class="st15" width="4.4" height="22.5"/>
		<rect x="691.2" y="402.4" class="st15" width="4.4" height="95.5"/>
		<rect x="824.4" y="629.3" class="st15" width="4.4" height="41"/>
		<rect x="824.4" y="670.3" class="st15" width="4.4" height="83"/>
		<rect x="824.4" y="753.3" class="st15" width="4.4" height="25.2"/>
		<rect x="824.4" y="776.6" class="st15" width="4.4" height="25.2"/>
		<rect x="824.4" y="801.8" class="st15" width="4.4" height="34.7"/>
		<rect x="824.4" y="835.5" class="st15" width="4.4" height="18"/>
		
			<rect x="824.4" y="853.2" transform="matrix(-1 -1.224647e-16 1.224647e-16 -1 1653.25 1725.0834)" class="st15" width="4.4" height="18.8"/>
		<rect x="824.4" y="871.5" class="st15" width="4.4" height="18"/>
		<rect x="824.4" y="889.5" class="st15" width="4.4" height="26.3"/>
		<rect x="824.4" y="915.8" class="st15" width="4.4" height="25.7"/>
		
			<rect x="737.6" y="476.9" transform="matrix(0.7071 -0.7071 0.7071 0.7071 -167.528 682.2174)" class="st15" width="4.4" height="132.8"/>
		
			<rect x="804.8" y="581.8" transform="matrix(0.7071 -0.7071 0.7071 0.7071 -195.3806 749.4596)" class="st15" width="4.4" height="57.5"/>
		<g>
			<rect x="750.9" y="229.5" class="st15" width="4.4" height="26.5"/>
			
				<rect x="772.8" y="245.2" transform="matrix(0.7071 -0.7071 0.7071 0.7071 31.09 629.1024)" class="st15" width="4.4" height="63.6"/>
		</g>
		
			<rect x="743.5" y="275.8" transform="matrix(0.7088 0.7054 -0.7054 0.7088 464.6723 -423.8362)" class="st15" width="4.4" height="150.1"/>
		
			<rect x="808.3" y="933.1" transform="matrix(0.7088 0.7054 -0.7054 0.7088 911.0526 -293.0894)" class="st15" width="4.4" height="47.5"/>
	</g>
</g>
<g id="Переходы">
	<ellipse class="st16" cx="641.3" cy="149.3" rx="5.5" ry="10.9"/>
	<ellipse class="st16" cx="753.1" cy="113.4" rx="6.2" ry="12.4"/>
	<ellipse class="st16" cx="761" cy="142.8" rx="12.9" ry="6.1"/>
	<ellipse class="st16" cx="753.1" cy="235.4" rx="5" ry="10.9"/>
	<ellipse class="st16" cx="804.2" cy="299.3" rx="12.1" ry="4.9"/>
	<ellipse class="st16" cx="977.2" cy="894.4" rx="11.7" ry="5"/>
	<ellipse class="st16" cx="1003.1" cy="199.7" rx="11.7" ry="5"/>
	<ellipse class="st16" cx="1006.7" cy="218.3" rx="13.6" ry="5.2"/>
	<ellipse class="st16" cx="543.7" cy="243.8" rx="10.7" ry="5"/>
	<ellipse class="st16" cx="523.4" cy="275.6" rx="11.3" ry="5"/>
	<ellipse class="st16" cx="693.4" cy="270.3" rx="5" ry="12.2"/>
	<ellipse class="st16" cx="633.6" cy="322.1" rx="5" ry="11"/>
	<ellipse class="st16" cx="568.4" cy="367.8" rx="5" ry="12.5"/>
	
		<ellipse transform="matrix(6.156261e-02 -0.9981 0.9981 6.156261e-02 85.9481 824.8347)" class="st16" cx="481.6" cy="366.7" rx="11.4" ry="5"/>
	<ellipse class="st16" cx="481.5" cy="487.6" rx="5.6" ry="10.7"/>
	<ellipse class="st16" cx="400.4" cy="535.6" rx="5.1" ry="12.6"/>
	<ellipse class="st16" cx="345.8" cy="364.9" rx="5.2" ry="12.2"/>
	<ellipse class="st16" cx="561.7" cy="650.9" rx="5.1" ry="10.9"/>
	<ellipse class="st16" cx="826.3" cy="746.4" rx="4.9" ry="12.3"/>
	<ellipse class="st16" cx="712.3" cy="739.3" rx="5" ry="11.8"/>
	<ellipse class="st16" cx="712.3" cy="612.6" rx="5" ry="12"/>
	<ellipse class="st16" cx="826.5" cy="623.5" rx="5" ry="11.5"/>
	<ellipse class="st16" cx="645.7" cy="565.2" rx="5" ry="11.7"/>
	<ellipse class="st16" cx="908.4" cy="584.3" rx="5" ry="11.8"/>
	<ellipse class="st16" cx="1004.2" cy="570.7" rx="5" ry="11.8"/>
	<ellipse class="st16" cx="1004.1" cy="499.4" rx="5.1" ry="12.4"/>
	<ellipse class="st16" cx="1097.1" cy="453.1" rx="4.9" ry="11.7"/>
	<ellipse class="st16" cx="928.9" cy="295.2" rx="5" ry="11.5"/>
	<ellipse class="st16" cx="870.9" cy="252.1" rx="5" ry="10.7"/>
	<ellipse class="st16" cx="871.1" cy="124.2" rx="5.8" ry="10.8"/>
	<ellipse class="st16" cx="983.9" cy="665" rx="5" ry="11.9"/>
	<ellipse class="st16" cx="950.9" cy="687.8" rx="5" ry="11.7"/>
	<ellipse class="st16" cx="950.9" cy="781.5" rx="5" ry="11.9"/>
	<ellipse class="st16" cx="826.3" cy="830.1" rx="5" ry="11.4"/>
	<ellipse class="st16" cx="746.3" cy="938.9" rx="5" ry="11.2"/>
	
		<ellipse transform="matrix(0.7071 -0.7071 0.7071 0.7071 -460.4253 844.6035)" class="st16" cx="789.3" cy="978.1" rx="11.9" ry="4.9"/>
	<ellipse class="st16" cx="693.4" cy="388.8" rx="5" ry="18"/>
	<ellipse class="st16" cx="693.4" cy="504.1" rx="5" ry="25.2"/>
	<ellipse class="st16" cx="774.5" cy="456.8" rx="5" ry="18.8"/>
	<ellipse class="st16" cx="837.6" cy="507.3" rx="5" ry="18"/>
	<ellipse class="st16" cx="977.3" cy="452.1" rx="5" ry="18.3"/>
	<ellipse class="st16" cx="946.5" cy="519.8" rx="5" ry="17.9"/>
	<ellipse class="st16" cx="815.5" cy="395.5" rx="5" ry="11.7"/>
	<ellipse class="st16" cx="871.1" cy="451.5" rx="5" ry="12.1"/>
	<ellipse class="st16" cx="1079.7" cy="328.8" rx="5" ry="12.8"/>
	<ellipse class="st16" cx="597.8" cy="401.9" rx="5" ry="18.1"/>
	<ellipse class="st16" cx="871.2" cy="346.1" rx="5" ry="18"/>
</g>
<g id="Станции">
	<g id="Станции_синия">
		<circle class="st17" cx="346" cy="234" r="5"/>
		<circle class="st17" cx="345.7" cy="250" r="5"/>
		<circle class="st17" cx="345.7" cy="269.3" r="5"/>
		<circle class="st17" cx="345.7" cy="287" r="5"/>
		<circle class="st17" cx="345.7" cy="304.7" r="5"/>
		<circle class="st17" cx="346" cy="322.3" r="5"/>
		<circle class="st17" cx="346" cy="340" r="5"/>
		<circle class="st17" cx="345.7" cy="357.7" r="5"/>
		<circle class="st17" cx="345.7" cy="401.3" r="5"/>
		<circle class="st17" cx="400.3" cy="528" r="5"/>
		<circle class="st18" cx="597.8" cy="415" r="5"/>
		<circle class="st18" cx="640.3" cy="458.3" r="5"/>
		<circle class="st18" cx="693.7" cy="511" r="5"/>
		<circle class="st18" cx="774.5" cy="470.6" r="5"/>
		<circle class="st18" cx="977.3" cy="438.9" r="5"/>
		<circle class="st18" cx="1005" cy="411.7" r="5"/>
		<circle class="st18" cx="1026.3" cy="390" r="5"/>
		<circle class="st18" cx="1061" cy="354.7" r="5"/>
		<circle class="st18" cx="1079.7" cy="336.6" r="5"/>
		<circle class="st18" cx="1089" cy="263.7" r="5"/>
		<circle class="st18" cx="1089" cy="281.3" r="5"/>
		<circle class="st18" cx="1089" cy="299.7" r="5"/>
	</g>
	<g id="Станции_красная">
		<circle class="st19" cx="1009.8" cy="199.8" r="5"/>
		<circle class="st19" cx="998.1" cy="218.3" r="5"/>
		<circle class="st19" cx="978.5" cy="238" r="5"/>
		<circle class="st19" cx="962.3" cy="254.3" r="5"/>
		<circle class="st19" cx="943.5" cy="273.2" r="5"/>
		<circle class="st19" cx="929" cy="288.7" r="5"/>
		<circle class="st19" cx="892.9" cy="324" r="5"/>
		<circle class="st19" cx="871.1" cy="345.9" r="5"/>
		<circle class="st19" cx="815.5" cy="402.2" r="5"/>
		<circle class="st19" cx="774.5" cy="443" r="5"/>
		<circle class="st19" cx="693.7" cy="524.2" r="5"/>
		<circle class="st19" cx="672.2" cy="545.8" r="5"/>
		<circle class="st19" cx="645.7" cy="571.8" r="5"/>
		<circle class="st19" cx="605.2" cy="613.1" r="5"/>
		<circle class="st19" cx="561.8" cy="656.8" r="5"/>
		<circle class="st19" cx="542.7" cy="675.9" r="5"/>
		<circle class="st19" cx="523.3" cy="695.4" r="5"/>
		<circle class="st19" cx="508.8" cy="709.9" r="5"/>
		<circle class="st19" cx="508.8" cy="734.3" r="5"/>
		<circle class="st19" cx="508.8" cy="752" r="5"/>
		<circle class="st19" cx="508.8" cy="769.7" r="5"/>
		<circle class="st19" cx="508.8" cy="787.3" r="5"/>
	</g>
	<g id="Станции_зелёная">
		<circle class="st20" cx="641.3" cy="54.2" r="5"/>
		<circle class="st20" cx="641.3" cy="72.3" r="5"/>
		<circle class="st20" cx="641.3" cy="143.4" r="5"/>
		<circle class="st20" cx="641.3" cy="177.8" r="5"/>
		<circle class="st20" cx="641.3" cy="196.5" r="5"/>
		<circle class="st20" cx="641.3" cy="214.8" r="5"/>
		<circle class="st20" cx="693.4" cy="277.5" r="5"/>
		<circle class="st20" cx="693.4" cy="353.8" r="5"/>
		<circle class="st20" cx="693.4" cy="375.9" r="5"/>
		<circle class="st20" cx="774.5" cy="457" r="5"/>
		<circle class="st20" cx="837.6" cy="520.4" r="5"/>
		<circle class="st20" cx="908.3" cy="591.2" r="5"/>
		<circle class="st20" cx="950.9" cy="681" r="5"/>
		<circle class="st20" cx="950.9" cy="743" r="5"/>
		<circle class="st20" cx="950.9" cy="758.3" r="5"/>
		<circle class="st20" cx="950.9" cy="774.6" r="5"/>
		<circle class="st20" cx="950.9" cy="830.5" r="5"/>
		<circle class="st20" cx="950.9" cy="847.3" r="5"/>
		<circle class="st20" cx="951.1" cy="865.3" r="5"/>
		<circle class="st20" cx="951.7" cy="879.1" r="5"/>
		<circle class="st20" cx="970.5" cy="894.4" r="5"/>
		<circle class="st20" cx="970" cy="912.7" r="5"/>
	</g>
	<g id="Станции_жёлтая">
		<circle class="st21" cx="1150.9" cy="392.5" r="5"/>
		<circle class="st21" cx="1133.7" cy="409.7" r="5"/>
		<circle class="st21" cx="1115.9" cy="427.5" r="5"/>
		<circle class="st21" cx="1097" cy="446.5" r="5"/>
		<circle class="st21" cx="1066.6" cy="476.8" r="5"/>
		<circle class="st21" cx="1004.2" cy="506.9" r="5"/>
		<circle class="st21" cx="946.5" cy="506.9" r="5"/>
		<circle class="st21" cx="837.6" cy="506.8" r="5"/>
		<circle class="st21" cx="367.6" cy="639.4" r="5"/>
		<circle class="st21" cx="367.6" cy="616.2" r="5"/>
		<circle class="st21" cx="367.7" cy="593.8" r="5"/>
		<circle class="st21" cx="400.9" cy="543.3" r="5"/>
		<circle class="st21" cx="568.4" cy="375.2" r="5"/>
	</g>
	<g id="Станции_светлозелёная">
		<circle class="st22" cx="769" cy="142.7" r="5"/>
		<circle class="st22" cx="781.6" cy="165.1" r="5"/>
		<circle class="st22" cx="781.4" cy="185.7" r="5"/>
		<circle class="st22" cx="781.6" cy="207.2" r="5"/>
		<circle class="st22" cx="781.4" cy="228.7" r="5"/>
		<circle class="st22" cx="811.3" cy="299.3" r="5"/>
		<circle class="st22" cx="871.1" cy="359.2" r="5"/>
		<circle class="st22" cx="977.3" cy="465.4" r="5"/>
		<circle class="st22" cx="1004" cy="492" r="5"/>
		<circle class="st22" cx="1004.2" cy="563.8" r="5"/>
		<circle class="st22" cx="983.9" cy="658.1" r="5"/>
		<circle class="st22" cx="983.9" cy="751.9" r="5"/>
		<circle class="st22" cx="983.9" cy="769.2" r="5"/>
		<circle class="st22" cx="983.9" cy="787.6" r="5"/>
		<circle class="st22" cx="983.9" cy="804.3" r="5"/>
		<circle class="st22" cx="983.8" cy="823.4" r="5"/>
		<circle class="st22" cx="983.8" cy="840.6" r="5"/>
		<circle class="st22" cx="983.9" cy="857.9" r="5"/>
		<circle class="st22" cx="983.8" cy="876.1" r="5"/>
		<circle class="st22" cx="983.9" cy="894.4" r="5"/>
	</g>
	<g id="Станции_рыжая">
		<circle class="st23" cx="871.1" cy="54.1" r="5"/>
		<circle class="st23" cx="870.9" cy="71.8" r="5"/>
		<circle class="st23" cx="871.1" cy="88.5" r="5"/>
		<circle class="st23" cx="871.1" cy="118.4" r="5"/>
		<circle class="st23" cx="870.9" cy="154.8" r="5"/>
		<circle class="st23" cx="871.1" cy="173.9" r="5"/>
		<circle class="st23" cx="871.1" cy="194.7" r="5"/>
		<circle class="st23" cx="870.9" cy="246.4" r="5"/>
		<circle class="st23" cx="870.9" cy="279.6" r="5"/>
		<circle class="st23" cx="871.1" cy="333" r="5"/>
		<circle class="st23" cx="871.1" cy="458.6" r="5"/>
		<circle class="st23" cx="837.6" cy="494.3" r="5"/>
		<circle class="st23" cx="712.3" cy="619.7" r="5"/>
		<circle class="st23" cx="712.3" cy="670.3" r="5"/>
		<circle class="st23" cx="712.3" cy="746.1" r="5"/>
		<circle class="st23" cx="712.3" cy="766" r="5"/>
		<circle class="st23" cx="712.3" cy="788.1" r="5"/>
		<circle class="st23" cx="712.3" cy="810.1" r="5"/>
		<circle class="st23" cx="712.3" cy="832.3" r="5"/>
		<circle class="st23" cx="712.3" cy="854.9" r="5"/>
		<circle class="st23" cx="712.3" cy="876.9" r="5"/>
		<circle class="st23" cx="713.2" cy="899.6" r="5"/>
		<circle class="st23" cx="728.5" cy="914.9" r="5"/>
		<circle class="st23" cx="746.3" cy="932.7" r="5"/>
	</g>
	<g id="Станции_серая">
		<circle class="st24" cx="794.3" cy="973.2" r="5"/>
		<circle class="st24" cx="826.6" cy="941.6" r="5"/>
		<circle class="st24" cx="826.6" cy="915.8" r="5"/>
		<circle class="st24" cx="826.6" cy="890.2" r="5"/>
		<circle class="st24" cx="826.6" cy="871.5" r="5"/>
		<circle class="st24" cx="826.3" cy="853.2" r="5"/>
		<circle class="st24" cx="826.3" cy="836.5" r="5"/>
		<circle class="st24" cx="826.6" cy="800.5" r="5"/>
		<circle class="st24" cx="826.6" cy="779.3" r="5"/>
		<circle class="st24" cx="826.6" cy="753.7" r="5"/>
		<circle class="st24" cx="826.6" cy="670.3" r="5"/>
		<circle class="st24" cx="826.5" cy="630" r="5"/>
		<circle class="st24" cx="786.7" cy="590.3" r="5"/>
		<circle class="st24" cx="693.4" cy="497" r="5"/>
		<circle class="st24" cx="693.4" cy="401.8" r="5"/>
		<circle class="st24" cx="797.1" cy="299.2" r="5"/>
		<circle class="st24" cx="753.1" cy="229.5" r="5"/>
		<circle class="st24" cx="753.1" cy="207.2" r="5"/>
		<circle class="st24" cx="753.1" cy="185.3" r="5"/>
		<circle class="st24" cx="753.1" cy="164.8" r="5"/>
		<circle class="st24" cx="753.1" cy="142.7" r="5"/>
		<circle class="st24" cx="753.1" cy="106" r="5"/>
		<circle class="st24" cx="753.1" cy="89.8" r="5"/>
		<circle class="st24" cx="753.1" cy="71.8" r="5"/>
		<circle class="st24" cx="753.1" cy="54.1" r="5"/>
	</g>
	<g id="Станции_фиолетовая">
		<circle class="st25" cx="548.8" cy="53" r="5"/>
		<circle class="st25" cx="548.8" cy="72.3" r="5"/>
		<circle class="st25" cx="548.8" cy="89.8" r="5"/>
		<circle class="st25" cx="548.8" cy="108" r="5"/>
		<circle class="st25" cx="548.8" cy="125.5" r="5"/>
		<circle class="st25" cx="549.3" cy="243.8" r="5"/>
		<circle class="st25" cx="529.6" cy="275.7" r="5"/>
		<circle class="st25" cx="581.2" cy="275.7" r="5"/>
		<circle class="st25" cx="633.6" cy="328.1" r="5"/>
		<circle class="st25" cx="693.4" cy="388.8" r="5"/>
		<circle class="st25" cx="815.5" cy="388.8" r="5"/>
		<circle class="st25" cx="871.1" cy="444.4" r="5"/>
		<circle class="st25" cx="946.5" cy="519.8" r="5"/>
		<circle class="st25" cx="1004.2" cy="577.5" r="5"/>
		<circle class="st25" cx="1029.3" cy="602.6" r="5"/>
		<circle class="st25" cx="1073" cy="646.3" r="5"/>
		<circle class="st25" cx="1090.6" cy="663.9" r="5"/>
		<circle class="st25" cx="1107.2" cy="680.5" r="5"/>
		<circle class="st25" cx="1107.2" cy="701.2" r="5"/>
		<circle class="st25" cx="1107.2" cy="719.6" r="5"/>
		<circle class="st25" cx="1107.2" cy="737" r="5"/>
		<circle class="st25" cx="1107.2" cy="754.5" r="5"/>
	</g>
	<g id="Станции_голубая">
		<circle class="st26" cx="693.4" cy="483.9" r="5"/>
		<circle class="st26" cx="667.2" cy="457.6" r="5"/>
		<circle class="st26" cx="640.2" cy="430.7" r="5"/>
		<circle class="st26" cx="597.8" cy="388.8" r="5"/>
		<circle class="st26" cx="568.4" cy="360.3" r="5"/>
		<circle class="st26" cx="481.6" cy="360.3" r="5"/>
		<circle class="st26" cx="527.6" cy="434.5" r="5"/>
		<circle class="st26" cx="481.5" cy="481.9" r="5"/>
		<circle class="st26" cx="367.9" cy="454.7" r="5"/>
		<circle class="st26" cx="367.9" cy="436.8" r="5"/>
		<circle class="st26" cx="367.9" cy="418.8" r="5"/>
		<circle class="st26" cx="367.9" cy="402" r="5"/>
		<circle class="st26" cx="346" cy="372.1" r="5"/>
	</g>
	<g id="Станции_светлоголубая">
		<circle class="st27" cx="784.3" cy="983.2" r="5"/>
		<circle class="st27" cx="763.7" cy="962.5" r="5"/>
		<circle class="st27" cx="746.3" cy="945.1" r="5"/>
		<circle class="st27" cx="785.7" cy="1002.8" r="5"/>
		<circle class="st27" cx="785.7" cy="1020.7" r="5"/>
		<circle class="st27" cx="785.7" cy="1038" r="5"/>
		<circle class="st27" cx="785.7" cy="1055.7" r="5"/>
	</g>
	<g id="Станции_бюрюзовая">
		<circle class="st28" cx="826.3" cy="823.7" r="5"/>
		<circle class="st28" cx="879.7" cy="808.5" r="5"/>
		<circle class="st28" cx="950.9" cy="788.3" r="5"/>
	</g>
	<g id="Станции_коричневая">
		<circle class="st29" cx="753.4" cy="241.2" r="5"/>
		<circle class="st29" cx="871.1" cy="257.9" r="5"/>
		<circle class="st29" cx="929.2" cy="301.6" r="5"/>
		<circle class="st29" cx="977.3" cy="451.2" r="5"/>
		<circle class="st29" cx="946.8" cy="532.7" r="5"/>
		<circle class="st29" cx="908.4" cy="577.5" r="5"/>
		<circle class="st29" cx="826.5" cy="617" r="5"/>
		<circle class="st29" cx="712.3" cy="605.6" r="5"/>
		<circle class="st29" cx="645.7" cy="558.5" r="5"/>
		<circle class="st29" cx="597.8" cy="401.9" r="5"/>
		<circle class="st29" cx="633.6" cy="316.1" r="5"/>
		<circle class="st29" cx="693.5" cy="263.1" r="5"/>
	</g>
	<g id="Станции_розовая">
		<circle class="st30" cx="727.8" cy="124.7" r="5"/>
		<circle class="st30" cx="753.1" cy="120.9" r="5"/>
		<circle class="st30" cx="871.1" cy="130.1" r="5"/>
		<circle class="st30" cx="940.1" cy="159.1" r="5"/>
		<circle class="st30" cx="969.2" cy="177" r="5"/>
		<circle class="st30" cx="996.3" cy="199.7" r="5"/>
		<circle class="st30" cx="1015.3" cy="218.3" r="5"/>
		<circle class="st30" cx="1079.7" cy="321" r="5"/>
		<circle class="st30" cx="1097" cy="459.8" r="5"/>
		<circle class="st30" cx="1084.5" cy="521.6" r="5"/>
		<circle class="st30" cx="1092.4" cy="492" r="5"/>
		<circle class="st30" cx="1074.7" cy="547.9" r="5"/>
		<circle class="st30" cx="1027.1" cy="628.6" r="5"/>
		<circle class="st30" cx="984" cy="671.9" r="5"/>
		<circle class="st30" cx="950.9" cy="694.5" r="5"/>
		<circle class="st30" cx="903.9" cy="718.9" r="5"/>
		<circle class="st30" cx="826.4" cy="739.1" r="5"/>
		<circle class="st30" cx="784" cy="741.5" r="5"/>
		<circle class="st30" cx="712.3" cy="732.5" r="5"/>
		<circle class="st30" cx="561.8" cy="645" r="5"/>
		<circle class="st30" cx="481.5" cy="493.5" r="5"/>
		<circle class="st30" cx="481.6" cy="373.1" r="5"/>
		<circle class="st30" cx="495.6" cy="322.6" r="5"/>
		<circle class="st30" cx="517.1" cy="275.6" r="5"/>
		<circle class="st30" cx="527.1" cy="259.4" r="5"/>
		<circle class="st30" cx="538" cy="243.8" r="5"/>
		<circle class="st30" cx="568.2" cy="209.2" r="5"/>
		<circle class="st30" cx="641.4" cy="155.2" r="5"/>
		<circle class="st30" cx="679.8" cy="138" r="5"/>
		<circle class="st30" cx="704.7" cy="130.1" r="5"/>
	</g>
</g>
</svg>
