<?xml version="1.0" encoding="utf-8"?>
<!-- Generator: Adobe Illustrator 22.0.1, SVG Export Plug-In . SVG Version: 6.00 Build 0)  -->
<svg version="1.1" id="Слой_1" xmlns="http://www.w3.org/2000/svg" xmlns:xlink="http://www.w3.org/1999/xlink" x="0px" y="0px"
	 viewBox="0 0 1920 1080" style="enable-background:new 0 0 1920 1080;" xml:space="preserve">
<style type="text/css">
	.st0{fill:none;stroke:#512D14;stroke-width:3;stroke-miterlimit:10;}
	.st1{display:none;}
	.st2{fill:#0000CC;}
	.st3{fill:#0A06B7;}
	.st4{fill:#E50520;}
	.st5{fill:#2F7708;}
	.st6{fill:#FFFF0B;}
	.st7{fill:#9504A5;}
	.st8{fill:#03D2F4;}
	.st9{fill:none;stroke:#4C2E0A;stroke-width:3;stroke-miterlimit:10;}
	.st10{fill:#69E7F4;}
	.st11{fill:#007999;}
	.st12{fill:none;stroke:#EABBE9;stroke-width:3;stroke-miterlimit:10;}
	.st13{fill:#F76A00;}
	.st14{fill:#00FF2A;}
	.st15{fill:#686868;}
	.st16{fill:#656570;stroke:#000000;stroke-width:3;stroke-miterlimit:10;}
	.st17{fill:#FFFFFF;stroke:#0000CC;stroke-width:3;stroke-miterlimit:10;}
	.st18{fill:#FDFDFF;stroke:#0000CC;stroke-width:3;stroke-miterlimit:10;}
	.st19{fill:#FFFFFF;stroke:#E50520;stroke-width:3;stroke-miterlimit:10;}
	.st20{fill:#FFFFFF;stroke:#2F7708;stroke-width:3;stroke-miterlimit:10;}
	.st21{fill:#FFFFFF;stroke:#FFFF0B;stroke-width:3;stroke-miterlimit:10;}
	.st22{fill:#FFFFFF;stroke:#00FF2A;stroke-width:3;stroke-miterlimit:10;}
	.st23{fill:#FFFFFF;stroke:#F76A00;stroke-width:3;stroke-miterlimit:10;}
	.st24{fill:#FFFFFF;stroke:#686868;stroke-width:3;stroke-miterlimit:10;}
	.st25{fill:#FFFFFF;stroke:#9504A5;stroke-width:3;stroke-miterlimit:10;}
	.st26{fill:#FFFFFF;stroke:#03D2F4;stroke-width:3;stroke-miterlimit:10;}
	.st27{fill:#FFFFFF;stroke:#69E7F4;stroke-width:3;stroke-miterlimit:10;}
	.st28{fill:#FFFFFF;stroke:#007999;stroke-width:3;stroke-miterlimit:10;}
	.st29{fill:#FFFFFF;stroke:#512D14;stroke-width:3;stroke-miterlimit:10;}
	.st30{fill:#FFFFFF;stroke:#EABBE9;stroke-width:3;stroke-miterlimit:10;}
	.st31{font-family:'ArialMT';}
	.st32{font-size:12.354px;}
	.st33{font-family:'MyriadPro-Regular';}
	.st34{font-size:12px;}
</style>
<g id="Фон">
	<rect x="1.9" y="-0.6" class="st0" width="1920" height="1107.1"/>
</g>
<g id="Референс" class="st1">
</g>
<g id="Ветки">
	<g id="Ветка_синия">
		<rect x="343.8" y="234" class="st2" width="4.4" height="17.8"/>
		<rect x="343.8" y="251.8" class="st3" width="4.4" height="17.8"/>
		<rect x="343.8" y="269.6" class="st3" width="4.4" height="17.8"/>
		<rect x="343.8" y="287.3" class="st3" width="4.4" height="19.5"/>
		<rect x="343.8" y="305.7" class="st3" width="4.4" height="17.8"/>
		<rect x="343.8" y="323.5" class="st3" width="4.4" height="17.8"/>
		<rect x="343.8" y="341.3" class="st3" width="4.4" height="17.8"/>
		<rect x="343.8" y="359.1" class="st3" width="4.4" height="42.9"/>
		<g>
			
				<rect x="360.5" y="491" transform="matrix(0.6458 -0.7635 0.7635 0.6458 -263.9458 458.9811)" class="st3" width="4.4" height="45.9"/>
			<rect x="343.8" y="402" class="st3" width="4.4" height="98.8"/>
			<rect x="378.9" y="526.1" class="st3" width="22" height="4.4"/>
		</g>
		<g>
			
				<rect x="438.7" y="469.4" transform="matrix(0.7071 -0.7071 0.7071 0.7071 -181.2285 505.6189)" class="st3" width="162.1" height="4.4"/>
			<rect x="400.9" y="526.1" class="st3" width="63" height="4.4"/>
			<rect x="575.4" y="412.7" class="st3" width="22.8" height="4.4"/>
		</g>
		
			<rect x="616.1" y="405.4" transform="matrix(0.7071 -0.7071 0.7071 0.7071 -127.1313 564.8759)" class="st3" width="4.4" height="61"/>
		
			<rect x="664.7" y="446.2" transform="matrix(0.7071 -0.7071 0.7071 0.7071 -147.2767 613.4985)" class="st3" width="4.4" height="76.6"/>
		<g>
			
				<rect x="710.3" y="488.3" transform="matrix(0.7071 -0.7071 0.7071 0.7071 -130.0458 667.0539)" class="st3" width="59.8" height="4.4"/>
			<rect x="692.5" y="508.8" class="st3" width="28.1" height="4.4"/>
		</g>
		<rect x="759.8" y="467.8" class="st3" width="16.3" height="4.4"/>
		
			<rect x="1057.8" y="343.7" transform="matrix(0.7071 -0.7071 0.7071 0.7071 68.8631 858.0597)" class="st3" width="24.9" height="4.4"/>
		
			<rect x="1020.2" y="369.6" transform="matrix(0.7071 -0.7071 0.7071 0.7071 42.9614 847.3363)" class="st3" width="48.3" height="4.4"/>
		
			<rect x="1000.3" y="397.9" transform="matrix(0.7071 -0.7071 0.7071 0.7071 14.668 835.6698)" class="st3" width="31.6" height="4.4"/>
		
			<rect x="972.8" y="422.4" transform="matrix(0.7071 -0.7071 0.7071 0.7071 -9.7997 825.5736)" class="st3" width="37.7" height="4.4"/>
		<g>
			<rect x="776.1" y="467.8" class="st3" width="171" height="4.4"/>
			
				<rect x="938.8" y="452.1" transform="matrix(0.7071 -0.7071 0.7071 0.7071 -39.5094 813.2371)" class="st3" width="46.3" height="4.4"/>
		</g>
		<g>
			
				<rect x="1076.9" y="329.6" transform="matrix(0.7071 -0.7071 0.7071 0.7071 82.962 863.9026)" class="st3" width="14.9" height="4.4"/>
			<rect x="1086.8" y="299.6" class="st3" width="4.4" height="28.5"/>
		</g>
		<rect x="1086.8" y="280.9" class="st3" width="4.4" height="18.7"/>
		<rect x="1086.8" y="262.1" class="st3" width="4.4" height="18.7"/>
	</g>
	<g id="Ветка_красная">
		<g>
			<rect x="1007.6" y="199.8" class="st4" width="4.4" height="7.6"/>
			
				<rect x="995.6" y="209.9" transform="matrix(0.7054 -0.7088 0.7088 0.7054 145.5673 774.382)" class="st4" width="17.6" height="4.4"/>
		</g>
		
			<rect x="974.1" y="226.1" transform="matrix(0.7054 -0.7088 0.7088 0.7054 129.2664 767.7036)" class="st4" width="28.2" height="4.4"/>
		
			<rect x="960.4" y="243.5" transform="matrix(0.7054 -0.7088 0.7088 0.7054 111.8526 760.5135)" class="st4" width="20.9" height="4.4"/>
		
			<rect x="943.6" y="259.2" transform="matrix(0.7054 -0.7088 0.7088 0.7054 96.1659 754.1168)" class="st4" width="23.4" height="4.4"/>
		
			<rect x="924.4" y="276.9" transform="matrix(0.7054 -0.7088 0.7088 0.7054 78.4157 746.8129)" class="st4" width="26.5" height="4.4"/>
		
			<rect x="887.5" y="303.1" transform="matrix(0.7054 -0.7088 0.7088 0.7054 52.1468 736.0893)" class="st4" width="48.2" height="4.4"/>
		
			<rect x="866.8" y="331.7" transform="matrix(0.7054 -0.7088 0.7088 0.7054 23.4822 724.3267)" class="st4" width="32.6" height="4.4"/>
		
			<rect x="806.6" y="370.2" transform="matrix(0.7054 -0.7088 0.7088 0.7054 -15.1148 708.4506)" class="st4" width="76.3" height="4.4"/>
		
			<rect x="765.4" y="419.1" transform="matrix(0.7054 -0.7088 0.7088 0.7054 -64.0584 688.4274)" class="st4" width="61.6" height="4.4"/>
		
			<rect x="677.5" y="481.2" transform="matrix(0.7054 -0.7088 0.7088 0.7054 -126.3257 662.896)" class="st4" width="113.6" height="4.4"/>
		
			<rect x="667.6" y="532.5" transform="matrix(0.7054 -0.7088 0.7088 0.7054 -177.7285 641.7784)" class="st4" width="31.3" height="4.4"/>
		
			<rect x="640.7" y="556.8" transform="matrix(0.7054 -0.7088 0.7088 0.7054 -202.0455 631.911)" class="st4" width="36.9" height="4.4"/>
		
			<rect x="596.6" y="590.2" transform="matrix(0.7054 -0.7088 0.7088 0.7054 -235.5547 618.1027)" class="st4" width="58.4" height="4.4"/>
		
			<rect x="553.1" y="632.5" transform="matrix(0.7054 -0.7088 0.7088 0.7054 -277.933 600.7253)" class="st4" width="61.2" height="4.4"/>
		
			<rect x="539.2" y="663.6" transform="matrix(0.7054 -0.7088 0.7088 0.7054 -309.0492 588.0327)" class="st4" width="27.3" height="4.4"/>
		
			<rect x="520.1" y="682.7" transform="matrix(0.7054 -0.7088 0.7088 0.7054 -328.2068 580.1014)" class="st4" width="27.4" height="4.4"/>
		
			<rect x="505" y="700.4" transform="matrix(0.7054 -0.7088 0.7088 0.7054 -345.9198 572.8421)" class="st4" width="22.4" height="4.4"/>
		<rect x="506.6" y="709" class="st4" width="4.4" height="24"/>
		<rect x="506.6" y="733" class="st4" width="4.4" height="18.3"/>
		<rect x="506.6" y="751.3" class="st4" width="4.4" height="18.3"/>
		<rect x="506.6" y="769.7" class="st4" width="4.4" height="18.3"/>
	</g>
	<g id="Ветка_зелёная">
		<rect x="639.1" y="53.8" class="st5" width="4.4" height="18.5"/>
		<rect x="639.1" y="72.3" class="st5" width="4.4" height="71.4"/>
		<rect x="639.1" y="143.7" class="st5" width="4.4" height="34.3"/>
		<rect x="639.1" y="178" class="st5" width="4.4" height="18"/>
		<rect x="639.1" y="196" class="st5" width="4.4" height="18"/>
		<rect x="691.2" y="276.4" class="st5" width="4.4" height="78.6"/>
		<rect x="691.2" y="355" class="st5" width="4.4" height="21.7"/>
		<rect x="948.7" y="680.3" class="st5" width="4.4" height="61.1"/>
		<rect x="948.7" y="741.4" class="st5" width="4.4" height="21"/>
		<rect x="948.7" y="762.3" class="st5" width="4.4" height="13.8"/>
		<rect x="948.7" y="776.1" class="st5" width="4.4" height="51.3"/>
		<rect x="948.7" y="827.5" class="st5" width="4.4" height="18.1"/>
		<rect x="948.7" y="845.6" class="st5" width="4.4" height="15.8"/>
		<rect x="948.7" y="861.4" class="st5" width="4.4" height="17.7"/>
		<rect x="967.8" y="894.9" class="st5" width="4.4" height="17"/>
		<g>
			<rect x="639.1" y="213.9" class="st5" width="4.4" height="12.2"/>
			
				<rect x="665.2" y="213.4" transform="matrix(0.7071 -0.7071 0.7071 0.7071 17.8283 545.5049)" class="st5" width="4.4" height="75.7"/>
		</g>
		
			<rect x="731.2" y="358.3" transform="matrix(0.7071 -0.7071 0.7071 0.7071 -79.2542 640.3685)" class="st5" width="4.4" height="115.1"/>
		
			<rect x="803.8" y="442.8" transform="matrix(0.7071 -0.7071 0.7071 0.7071 -109.3356 713.0027)" class="st5" width="4.4" height="91.3"/>
		
			<rect x="871.1" y="506.1" transform="matrix(0.7071 -0.7071 0.7071 0.7071 -137.2116 780.303)" class="st5" width="4.4" height="99.3"/>
		<g>
			<rect x="948.7" y="632.4" class="st5" width="4.4" height="47.9"/>
			
				<rect x="927.9" y="582.2" transform="matrix(0.7071 -0.7071 0.7071 0.7071 -160.7165 837.0972)" class="st5" width="4.4" height="60.7"/>
		</g>
		
			<rect x="957.5" y="873.9" transform="matrix(0.6293 -0.7772 0.7772 0.6293 -333.6237 1074.7317)" class="st5" width="4.4" height="26.4"/>
	</g>
	<g id="Ветка_жёлтая">
		
			<rect x="1129.4" y="399" transform="matrix(0.7071 -0.7071 0.7071 0.7071 50.8623 925.1741)" class="st6" width="25.7" height="4.4"/>
		
			<rect x="1111.3" y="417.1" transform="matrix(0.7071 -0.7071 0.7071 0.7071 32.759 917.6855)" class="st6" width="25.7" height="4.4"/>
		
			<rect x="1093" y="435.3" transform="matrix(0.7071 -0.7071 0.7071 0.7071 14.5215 910.1206)" class="st6" width="25.7" height="4.4"/>
		
			<rect x="1060.5" y="459.4" transform="matrix(0.7071 -0.7071 0.7071 0.7071 -9.5098 900.1727)" class="st6" width="42.7" height="4.4"/>
		<g>
			
				<rect x="1029.6" y="489.8" transform="matrix(0.7071 -0.7071 0.7071 0.7071 -39.9472 887.5182)" class="st6" width="43.6" height="4.4"/>
			<rect x="1004.2" y="504.6" class="st6" width="33.3" height="4.4"/>
		</g>
		<rect x="946.9" y="504.7" class="st6" width="57.4" height="4.4"/>
		<rect x="838.3" y="504.6" class="st6" width="108.5" height="4.4"/>
		<rect x="365.4" y="616.2" class="st6" width="4.4" height="23.3"/>
		<rect x="365.4" y="593.8" class="st6" width="4.4" height="22.3"/>
		<rect x="365.4" y="575.7" class="st6" width="4.4" height="18.1"/>
		
			<rect x="359.9" y="558.1" transform="matrix(0.7071 -0.7071 0.7071 0.7071 -283.7458 435.5648)" class="st6" width="48" height="4.4"/>
		
			<rect x="365.8" y="456.7" transform="matrix(0.7071 -0.7071 0.7071 0.7071 -182.3279 477.5908)" class="st6" width="239.1" height="4.4"/>
	</g>
	<g id="Ветка_фиолетовая">
		<rect x="546.6" y="53.9" class="st7" width="4.4" height="18.5"/>
		<rect x="546.6" y="72.3" class="st7" width="4.4" height="18.5"/>
		<rect x="546.6" y="90.8" class="st7" width="4.4" height="18.5"/>
		<rect x="546.6" y="109.2" class="st7" width="4.4" height="16.3"/>
		<rect x="546.6" y="125.5" class="st7" width="4.4" height="120"/>
		
			<rect x="605.6" y="263.9" transform="matrix(0.7071 -0.7071 0.7071 0.7071 -35.6502 518.2984)" class="st7" width="4.4" height="76.6"/>
		
			<rect x="662.7" y="316.8" transform="matrix(0.7071 -0.7071 0.7071 0.7071 -59.3478 575.4274)" class="st7" width="4.4" height="85.1"/>
		<rect x="693.5" y="386.6" class="st7" width="123.1" height="4.4"/>
		
			<rect x="878.7" y="360.8" transform="matrix(0.7071 -0.7071 0.7071 0.7071 -63.1202 755.8767)" class="st7" width="4.4" height="186.7"/>
		
			<rect x="973.3" y="507.8" transform="matrix(0.7071 -0.7071 0.7071 0.7071 -102.2999 850.4868)" class="st7" width="4.4" height="81.9"/>
		
			<rect x="1014.8" y="572.2" transform="matrix(0.7071 -0.7071 0.7071 0.7071 -119.5878 892.032)" class="st7" width="4.4" height="36.3"/>
		
			<rect x="1049" y="594" transform="matrix(0.7071 -0.7071 0.7071 0.7071 -133.6948 926.2326)" class="st7" width="4.4" height="61"/>
		
			<rect x="1079.9" y="642" transform="matrix(0.7071 -0.7071 0.7071 0.7071 -146.3988 957.0791)" class="st7" width="4.4" height="26.6"/>
		
			<rect x="1097.4" y="661.3" transform="matrix(0.7071 -0.7071 0.7071 0.7071 -153.7978 974.6402)" class="st7" width="4.4" height="23.3"/>
		<rect x="528.4" y="273.4" class="st7" width="53.8" height="4.4"/>
		
			<rect x="520" y="258.3" transform="matrix(0.5301 -0.8479 0.8479 0.5301 32.3513 579.4608)" class="st7" width="38.1" height="4.4"/>
		<rect x="1105" y="679.6" class="st7" width="4.4" height="21.6"/>
		<rect x="1105" y="701.2" class="st7" width="4.4" height="18.5"/>
		<rect x="1105" y="719.6" class="st7" width="4.4" height="18.5"/>
		<rect x="1105" y="738" class="st7" width="4.4" height="18.5"/>
	</g>
	<g id="Ветка_голубая">
		
			<rect x="677.6" y="451.3" transform="matrix(0.7071 -0.7071 0.7071 0.7071 -133.4048 618.3934)" class="st8" width="4.4" height="37.9"/>
		
			<rect x="651" y="424.7" transform="matrix(0.7071 -0.7071 0.7071 0.7071 -122.3705 591.8329)" class="st8" width="4.4" height="37.9"/>
		
			<rect x="616.5" y="379.3" transform="matrix(0.7071 -0.7071 0.7071 0.7071 -108.1837 557.3665)" class="st8" width="4.4" height="59.9"/>
		
			<rect x="581.2" y="353.8" transform="matrix(0.7071 -0.7071 0.7071 0.7071 -93.563 522.0645)" class="st8" width="4.4" height="40.3"/>
		<rect x="481.7" y="358.1" class="st8" width="89.1" height="4.4"/>
		<rect x="572.2" y="386.6" class="st8" width="25.5" height="4.4"/>
		
			<rect x="517.4" y="409.4" transform="matrix(0.7054 -0.7088 0.7088 0.7054 -129.5719 511.4597)" class="st8" width="66.2" height="4.4"/>
		
			<rect x="472.8" y="455.4" transform="matrix(0.7054 -0.7088 0.7088 0.7054 -175.7001 492.5406)" class="st8" width="63.8" height="4.4"/>
		
			<rect x="451.8" y="490.7" transform="matrix(0.7054 -0.7088 0.7088 0.7054 -210.9937 478.1057)" class="st8" width="35.7" height="4.4"/>
		<rect x="386.3" y="502.7" class="st8" width="72.2" height="4.4"/>
		<rect x="365.7" y="454.6" class="st8" width="4.4" height="31.8"/>
		<rect x="365.7" y="436.7" class="st8" width="4.4" height="18"/>
		<rect x="365.7" y="418.7" class="st8" width="4.4" height="18"/>
		<rect x="365.7" y="393.1" class="st8" width="4.4" height="25.7"/>
		
			<rect x="375.3" y="480.7" transform="matrix(0.7071 -0.7071 0.7071 0.7071 -239.6829 412.0168)" class="st8" width="4.4" height="29.2"/>
		
			<rect x="354.6" y="366.3" transform="matrix(0.7071 -0.7071 0.7071 0.7071 -166.2356 364.4403)" class="st8" width="4.4" height="33.2"/>
	</g>
	<g id="Ветка_коричневая">
		<path class="st9" d="M712,605.6c22.9,9.7,48.1,15.1,74.5,15.1c13.6,0,26.9-1.4,39.7-4.2"/>
		<path class="st9" d="M597.8,401.1c-1.4,9.4-2.2,19-2.2,28.7c0,49.4,18.8,94.4,49.6,128.3"/>
		<path class="st9" d="M645.3,558.2c18.4,20.3,41.1,36.5,66.7,47.4"/>
		<path class="st9" d="M826.2,616.5c31-6.6,59.2-20.6,82.6-40.2"/>
		<path class="st9" d="M908.8,576.3c14.4-12,27-26.1,37.3-41.9"/>
		<path class="st9" d="M946.1,534.4c15.8-24.1,26.3-52,29.9-82"/>
		<path class="st9" d="M976,452.4c0.9-7.4,1.3-15,1.3-22.6c0-48.8-18.3-93.4-48.5-127.1"/>
		<path class="st9" d="M633.8,315.4c-18.5,24.6-31.2,53.9-36,85.8"/>
		<path class="st9" d="M928.8,302.7c-16.3-18.2-36-33.3-58.1-44.2"/>
		<path class="st9" d="M870.7,258.6c-25.4-12.5-54-19.6-84.2-19.6c-11.4,0-22.5,1-33.3,2.9"/>
		<path class="st9" d="M692.9,263.5c-23.1,13-43.2,30.7-59.1,51.9"/>
		<path class="st9" d="M753.2,241.9c-21.5,3.8-41.8,11.2-60.2,21.6"/>
	</g>
	<g id="Ветка_светлоголубая">
		
			<rect x="752.8" y="940.8" transform="matrix(0.7071 -0.7071 0.7071 0.7071 -453.3407 813.2334)" class="st10" width="4.4" height="26.1"/>
		
			<rect x="773.1" y="958.5" transform="matrix(0.7071 -0.7071 0.7071 0.7071 -461.7058 833.4965)" class="st10" width="4.4" height="31.2"/>
		<rect x="783.5" y="983.6" class="st10" width="4.4" height="19.1"/>
		<rect x="783.5" y="1002.8" class="st10" width="4.4" height="17.5"/>
		<rect x="783.5" y="1020.3" class="st10" width="4.4" height="18.4"/>
		<rect x="783.5" y="1038.7" class="st10" width="4.4" height="19.1"/>
	</g>
	<g id="Ветка_бюрюзовая">
		
			<rect x="826.1" y="813.7" transform="matrix(0.9622 -0.2722 0.2722 0.9622 -189.8616 263.1478)" class="st11" width="54.9" height="4.4"/>
		
			<rect x="878.3" y="796.3" transform="matrix(0.9622 -0.2722 0.2722 0.9622 -182.7926 279.2981)" class="st11" width="74" height="4.4"/>
	</g>
	<g id="Ветка_розовая">
		<path class="st12" d="M727.8,124.7c-7.8,1.5-15.6,3.3-23.2,5.4"/>
		<path class="st12" d="M753.1,120.9c-8.5,0.9-16.9,2.2-25.3,3.8"/>
		<path class="st12" d="M704.7,130.1c-8.4,2.3-16.7,5-24.8,7.9"/>
		<path class="st12" d="M568.2,209.2c-10.9,10.8-21,22.3-30.1,34.6"/>
		<path class="st12" d="M870,130.1c-26.4-7.2-54.1-11.1-82.7-11.1c-11.5,0-22.9,0.6-34.2,1.9"/>
		<path class="st12" d="M679.8,138c-13.2,4.9-26.1,10.6-38.4,17.2"/>
		<path class="st12" d="M538,243.8c-3.8,5.1-7.4,10.3-10.9,15.6"/>
		<path class="st12" d="M641.4,155.2c-27,14.4-51.7,32.6-73.3,54"/>
		<path class="st12" d="M1078.8,321c-14.1-37.5-35.1-71.5-61.6-100.6"/>
		<path class="st12" d="M1017.1,220.4c-6.6-7.2-13.5-14.1-20.8-20.7"/>
		<path class="st12" d="M1092.9,371.5c-3.3-17.4-8.1-34.3-14.2-50.5"/>
		<path class="st12" d="M996.3,199.7c-8.9-8.1-18.3-15.6-28.1-22.7"/>
		<path class="st12" d="M968.3,177c-9-6.5-18.4-12.5-28.2-18"/>
		<path class="st12" d="M940.1,159.1c-21.9-12.3-45.4-22.1-70.1-28.9"/>
		<path class="st12" d="M1092.4,492c4-20,6.1-40.6,6.1-61.7c0-20.1-1.9-39.7-5.6-58.7"/>
		<path class="st12" d="M527.1,259.4c-3.5,5.3-6.8,10.7-10,16.2"/>
		<path class="st12" d="M952.7,693.9c10.6-6.7,20.7-13.9,30.4-21.8"/>
		<path class="st12" d="M903.9,718.9c17.1-6.9,33.4-15.3,48.8-25"/>
		<path class="st12" d="M983.2,672.1c16-13,30.8-27.6,44-43.5"/>
		<path class="st12" d="M1084.5,522.8c3.1-10.1,5.8-20.4,7.9-30.9"/>
		<path class="st12" d="M1075.5,547.9c3.3-8.2,6.4-16.5,9-25.1"/>
		<path class="st12" d="M1027.1,628.6c20-24.1,36.3-51.3,48.4-80.7"/>
		<path class="st12" d="M826.4,739.1c27.1-3.4,53.1-10.3,77.5-20.2"/>
		<path class="st12" d="M480.8,375.7c-3.1,17.7-4.8,35.9-4.8,54.5c0,22.7,2.4,44.7,7,66"/>
		<path class="st12" d="M784,741.5c1.1,0,2.2,0,3.2,0c13.3,0,26.4-0.8,39.2-2.4"/>
		<path class="st12" d="M517.1,275.6c-8.3,14.5-15.5,29.8-21.5,45.7"/>
		<path class="st12" d="M495.6,321.2c-6.5,17.5-11.6,35.7-14.9,54.5"/>
		<path class="st12" d="M712.6,732.5c22.9,5.6,46.8,8.7,71.4,9"/>
		<path class="st12" d="M562.5,645.5c40.2,41.9,91.9,72.6,150.2,87"/>
		<path class="st12" d="M483,496.3c12.4,57.2,40.4,108.5,79.4,149.2"/>
	</g>
	<g id="Ветка_рыжая">
		
			<rect x="831.5" y="474.6" transform="matrix(0.7071 -0.7071 0.7071 0.7071 -86.7355 744.2567)" class="st13" width="47.1" height="4.4"/>
		
			<rect x="685.3" y="554.6" transform="matrix(0.7071 -0.7071 0.7071 0.7071 -166.712 711.1585)" class="st13" width="179.6" height="4.4"/>
		
			<rect x="717.2" y="894.8" transform="matrix(0.7071 -0.7071 0.7071 0.7071 -429.7832 773.9616)" class="st13" width="4.4" height="22"/>
		
			<rect x="734.9" y="909.5" transform="matrix(0.7071 -0.7071 0.7071 0.7071 -437.1011 791.6943)" class="st13" width="4.4" height="28"/>
		<rect x="710.1" y="876.9" class="st13" width="4.4" height="22.7"/>
		<rect x="710.1" y="854.6" class="st13" width="4.4" height="22.3"/>
		<rect x="710.1" y="832.9" class="st13" width="4.4" height="21.7"/>
		<rect x="710.1" y="810.1" class="st13" width="4.4" height="22.8"/>
		<rect x="710.1" y="788.6" class="st13" width="4.4" height="21.5"/>
		<rect x="710.1" y="766.2" class="st13" width="4.4" height="22.4"/>
		<rect x="710.1" y="746.8" class="st13" width="4.4" height="19.4"/>
		<rect x="710.1" y="670.3" class="st13" width="4.4" height="76.4"/>
		<rect x="710.1" y="618.8" class="st13" width="4.4" height="51.5"/>
		<rect x="868.9" y="333" class="st13" width="4.4" height="128.7"/>
		<rect x="868.9" y="279.6" class="st13" width="4.4" height="53.4"/>
		<rect x="868.9" y="246" class="st13" width="4.4" height="33.6"/>
		<rect x="868.9" y="194.7" class="st13" width="4.4" height="51.3"/>
		<rect x="868.9" y="174.8" class="st13" width="4.4" height="19.9"/>
		<rect x="868.9" y="154.8" class="st13" width="4.4" height="19.9"/>
		<rect x="868.7" y="117.9" class="st13" width="4.4" height="36.9"/>
		<rect x="868.7" y="89.8" class="st13" width="4.4" height="28.2"/>
		<rect x="868.7" y="71.8" class="st13" width="4.4" height="18"/>
		<rect x="868.7" y="54.1" class="st13" width="4.4" height="17.7"/>
	</g>
	<g id="Ветка_светлозелёная">
		
			<rect x="773.1" y="138.7" transform="matrix(0.7071 -0.7071 0.7071 0.7071 122.0026 591.7669)" class="st14" width="4.4" height="19.8"/>
		
			<rect x="824.2" y="250.2" transform="matrix(0.7071 -0.7071 0.7071 0.7071 19.7497 676.4264)" class="st14" width="4.4" height="128.4"/>
		
			<rect x="922.3" y="338" transform="matrix(0.7071 -0.7071 0.7071 0.7071 -20.9793 774.579)" class="st14" width="4.4" height="149.2"/>
		
			<rect x="988.8" y="459.4" transform="matrix(0.7071 -0.7071 0.7071 0.7071 -48.4744 841.0573)" class="st14" width="4.4" height="39.3"/>
		<rect x="779.4" y="154" class="st14" width="4.4" height="11.1"/>
		<rect x="779.4" y="165.1" class="st14" width="4.4" height="20.6"/>
		<rect x="779.4" y="185.7" class="st14" width="4.4" height="20.6"/>
		<rect x="779.4" y="206.3" class="st14" width="4.4" height="22.5"/>
		<rect x="779.4" y="228.8" class="st14" width="4.4" height="41.7"/>
		<rect x="1002" y="491.3" class="st14" width="4.4" height="72.7"/>
		<rect x="1002" y="563.8" class="st14" width="4.4" height="50.8"/>
		<rect x="981.7" y="633.1" class="st14" width="4.4" height="26.4"/>
		<rect x="981.7" y="659.5" class="st14" width="4.4" height="91.9"/>
		<rect x="981.7" y="751.4" class="st14" width="4.4" height="18.1"/>
		<rect x="981.7" y="769.6" class="st14" width="4.4" height="18"/>
		<rect x="981.7" y="787.6" class="st14" width="4.4" height="18"/>
		<rect x="981.7" y="805.6" class="st14" width="4.4" height="17.8"/>
		<rect x="981.7" y="823.4" class="st14" width="4.4" height="18.1"/>
		<rect x="981.6" y="841.4" class="st14" width="4.4" height="16.7"/>
		<rect x="981.6" y="857.9" class="st14" width="4.4" height="19.3"/>
		<rect x="981.6" y="877.2" class="st14" width="4.4" height="17.7"/>
		
			<rect x="978.8" y="621.7" transform="matrix(0.7071 -0.7071 0.7071 0.7071 -149.9883 885.6378)" class="st14" width="30.6" height="4.4"/>
	</g>
	<g id="Ветка_серая">
		<rect x="750.9" y="52.7" class="st15" width="4.4" height="19.1"/>
		<rect x="750.9" y="71.2" class="st15" width="4.4" height="19.1"/>
		<rect x="750.9" y="89.8" class="st15" width="4.4" height="16.3"/>
		<rect x="750.9" y="106" class="st15" width="4.4" height="36.7"/>
		<rect x="750.9" y="142.7" class="st15" width="4.4" height="22.1"/>
		<rect x="750.9" y="164.8" class="st15" width="4.4" height="20.9"/>
		<rect x="750.9" y="185.7" class="st15" width="4.4" height="21.6"/>
		<rect x="750.9" y="207" class="st15" width="4.4" height="22.5"/>
		<rect x="691.2" y="402.4" class="st15" width="4.4" height="95.5"/>
		<rect x="824.4" y="629.3" class="st15" width="4.4" height="41"/>
		<rect x="824.4" y="670.3" class="st15" width="4.4" height="83"/>
		<rect x="824.4" y="753.3" class="st15" width="4.4" height="25.2"/>
		<rect x="824.4" y="776.6" class="st15" width="4.4" height="25.2"/>
		<rect x="824.4" y="801.8" class="st15" width="4.4" height="34.7"/>
		<rect x="824.4" y="835.5" class="st15" width="4.4" height="18"/>
		<rect x="824.4" y="853.1" class="st15" width="4.4" height="18.8"/>
		<rect x="824.4" y="871.5" class="st15" width="4.4" height="18"/>
		<rect x="824.4" y="889.5" class="st15" width="4.4" height="26.3"/>
		<rect x="824.4" y="915.8" class="st15" width="4.4" height="25.7"/>
		
			<rect x="737.6" y="476.9" transform="matrix(0.7071 -0.7071 0.7071 0.7071 -167.4609 682.2323)" class="st15" width="4.4" height="132.8"/>
		
			<rect x="804.8" y="581.8" transform="matrix(0.7071 -0.7071 0.7071 0.7071 -195.35 749.4419)" class="st15" width="4.4" height="57.5"/>
		<g>
			<rect x="750.9" y="229.5" class="st15" width="4.4" height="26.5"/>
			
				<rect x="772.8" y="245.2" transform="matrix(0.7071 -0.7071 0.7071 0.7071 31.1499 629.132)" class="st15" width="4.4" height="63.6"/>
		</g>
		
			<rect x="670.7" y="348.7" transform="matrix(0.7054 -0.7088 0.7088 0.7054 -29.0063 631.9706)" class="st15" width="150.1" height="4.4"/>
		
			<rect x="786.8" y="954.7" transform="matrix(0.7054 -0.7088 0.7088 0.7054 -439.4629 856.4431)" class="st15" width="47.5" height="4.4"/>
	</g>
</g>
<g id="Переходы">
	<ellipse class="st16" cx="641.3" cy="149.3" rx="5.5" ry="10.9"/>
	<ellipse class="st16" cx="753.1" cy="113.4" rx="6.2" ry="12.4"/>
	<ellipse class="st16" cx="761" cy="142.8" rx="12.9" ry="6.1"/>
	<ellipse class="st16" cx="753.1" cy="235.4" rx="5" ry="10.9"/>
	<ellipse class="st16" cx="804.2" cy="299.3" rx="12.1" ry="4.9"/>
	<ellipse class="st16" cx="977.2" cy="894.4" rx="11.7" ry="5"/>
	<ellipse class="st16" cx="1003.1" cy="199.7" rx="11.7" ry="5"/>
	<ellipse class="st16" cx="1006.7" cy="218.3" rx="13.6" ry="5.2"/>
	<ellipse class="st16" cx="543.7" cy="243.8" rx="10.7" ry="5"/>
	<ellipse class="st16" cx="523.4" cy="275.6" rx="11.3" ry="5"/>
	<ellipse class="st16" cx="693.4" cy="270.3" rx="5" ry="12.2"/>
	<ellipse class="st16" cx="633.6" cy="322.1" rx="5" ry="11"/>
	<ellipse class="st16" cx="568.4" cy="367.8" rx="5" ry="12.5"/>
	
		<ellipse transform="matrix(6.156301e-02 -0.9981 0.9981 6.156301e-02 85.8978 824.8086)" class="st16" cx="481.6" cy="366.7" rx="11.4" ry="5"/>
	<ellipse class="st16" cx="481.5" cy="487.6" rx="5.6" ry="10.7"/>
	<ellipse class="st16" cx="400.4" cy="535.6" rx="5.1" ry="12.6"/>
	<ellipse class="st16" cx="345.8" cy="364.9" rx="5.2" ry="12.2"/>
	<ellipse class="st16" cx="561.7" cy="650.9" rx="5.1" ry="10.9"/>
	<ellipse class="st16" cx="826.3" cy="746.4" rx="4.9" ry="12.3"/>
	<ellipse class="st16" cx="712.3" cy="739.3" rx="5" ry="11.8"/>
	<ellipse class="st16" cx="712.3" cy="612.6" rx="5" ry="12"/>
	<ellipse class="st16" cx="826.5" cy="623.5" rx="5" ry="11.5"/>
	<ellipse class="st16" cx="645.7" cy="565.2" rx="5" ry="11.7"/>
	<ellipse class="st16" cx="908.4" cy="584.3" rx="5" ry="11.8"/>
	<ellipse class="st16" cx="1004.2" cy="570.7" rx="5" ry="11.8"/>
	<ellipse class="st16" cx="1004.1" cy="499.4" rx="5.1" ry="12.4"/>
	<ellipse class="st16" cx="1097.1" cy="453.1" rx="4.9" ry="11.7"/>
	<ellipse class="st16" cx="928.9" cy="295.2" rx="5" ry="11.5"/>
	<ellipse class="st16" cx="870.9" cy="252.1" rx="5" ry="10.7"/>
	<ellipse class="st16" cx="871.1" cy="124.2" rx="5.8" ry="10.8"/>
	<ellipse class="st16" cx="983.9" cy="665" rx="5" ry="11.9"/>
	<ellipse class="st16" cx="950.9" cy="687.8" rx="5" ry="11.7"/>
	<ellipse class="st16" cx="950.9" cy="781.5" rx="5" ry="11.9"/>
	<ellipse class="st16" cx="826.3" cy="830.1" rx="5" ry="11.4"/>
	<ellipse class="st16" cx="746.3" cy="938.9" rx="5" ry="11.2"/>
	
		<ellipse transform="matrix(0.7071 -0.7071 0.7071 0.7071 -460.4461 844.589)" class="st16" cx="789.3" cy="978.1" rx="11.9" ry="4.9"/>
	<ellipse class="st16" cx="693.4" cy="388.8" rx="5" ry="18"/>
	<ellipse class="st16" cx="693.4" cy="504.1" rx="5" ry="25.2"/>
	<ellipse class="st16" cx="774.5" cy="456.8" rx="5" ry="18.8"/>
	<ellipse class="st16" cx="837.6" cy="507.3" rx="5" ry="18"/>
	<ellipse class="st16" cx="977.3" cy="452.1" rx="5" ry="18.3"/>
	<ellipse class="st16" cx="946.5" cy="519.8" rx="5" ry="17.9"/>
	<ellipse class="st16" cx="815.5" cy="395.5" rx="5" ry="11.7"/>
	<ellipse class="st16" cx="871.1" cy="451.5" rx="5" ry="12.1"/>
	<ellipse class="st16" cx="1079.7" cy="328.8" rx="5" ry="12.8"/>
	<ellipse class="st16" cx="597.8" cy="401.9" rx="5" ry="18.1"/>
	<ellipse class="st16" cx="871.2" cy="346.1" rx="5" ry="18"/>
</g>
<g id="Станции">
	<g id="Станции_синия">
		<circle class="st17" cx="346" cy="234" r="5"/>
		<circle class="st17" cx="345.7" cy="250" r="5"/>
		<circle class="st17" cx="345.7" cy="269.3" r="5"/>
		<circle class="st17" cx="345.7" cy="287" r="5"/>
		<circle class="st17" cx="345.7" cy="304.7" r="5"/>
		<circle class="st17" cx="346" cy="322.3" r="5"/>
		<circle class="st17" cx="346" cy="340" r="5"/>
		<circle class="st17" cx="345.7" cy="357.7" r="5"/>
		<circle class="st17" cx="345.7" cy="401.3" r="5"/>
		<circle class="st17" cx="400.3" cy="528" r="5"/>
		<circle class="st18" cx="597.8" cy="415" r="5"/>
		<circle class="st18" cx="640.3" cy="458.3" r="5"/>
		<circle class="st18" cx="693.7" cy="511" r="5"/>
		<circle class="st18" cx="774.5" cy="470.6" r="5"/>
		<circle class="st18" cx="977.3" cy="438.9" r="5"/>
		<circle class="st18" cx="1005" cy="411.7" r="5"/>
		<circle class="st18" cx="1026.3" cy="390" r="5"/>
		<circle class="st18" cx="1061" cy="354.7" r="5"/>
		<circle class="st18" cx="1079.7" cy="336.6" r="5"/>
		<circle class="st18" cx="1089" cy="263.7" r="5"/>
		<circle class="st18" cx="1089" cy="281.3" r="5"/>
		<circle class="st18" cx="1089" cy="299.7" r="5"/>
	</g>
	<g id="Станции_красная">
		<circle class="st19" cx="1009.8" cy="199.8" r="5"/>
		<circle class="st19" cx="998.1" cy="218.3" r="5"/>
		<circle class="st19" cx="978.5" cy="238" r="5"/>
		<circle class="st19" cx="962.3" cy="254.3" r="5"/>
		<circle class="st19" cx="943.5" cy="273.2" r="5"/>
		<circle class="st19" cx="929" cy="288.7" r="5"/>
		<circle class="st19" cx="892.9" cy="324" r="5"/>
		<circle class="st19" cx="871.1" cy="345.9" r="5"/>
		<circle class="st19" cx="815.5" cy="402.2" r="5"/>
		<circle class="st19" cx="774.5" cy="443" r="5"/>
		<circle class="st19" cx="693.7" cy="524.2" r="5"/>
		<circle class="st19" cx="672.2" cy="545.8" r="5"/>
		<circle class="st19" cx="645.7" cy="571.8" r="5"/>
		<circle class="st19" cx="605.2" cy="613.1" r="5"/>
		<circle class="st19" cx="561.8" cy="656.8" r="5"/>
		<circle class="st19" cx="542.7" cy="675.9" r="5"/>
		<circle class="st19" cx="523.3" cy="695.4" r="5"/>
		<circle class="st19" cx="508.8" cy="709.9" r="5"/>
		<circle class="st19" cx="508.8" cy="734.3" r="5"/>
		<circle class="st19" cx="508.8" cy="752" r="5"/>
		<circle class="st19" cx="508.8" cy="769.7" r="5"/>
		<circle class="st19" cx="508.8" cy="787.3" r="5"/>
	</g>
	<g id="Станции_зелёная">
		<circle class="st20" cx="641.3" cy="54.2" r="5"/>
		<circle class="st20" cx="641.3" cy="72.3" r="5"/>
		<circle class="st20" cx="641.3" cy="143.4" r="5"/>
		<circle class="st20" cx="641.3" cy="177.8" r="5"/>
		<circle class="st20" cx="641.3" cy="196.5" r="5"/>
		<circle class="st20" cx="641.3" cy="214.8" r="5"/>
		<circle class="st20" cx="693.4" cy="277.5" r="5"/>
		<circle class="st20" cx="693.4" cy="353.8" r="5"/>
		<circle class="st20" cx="693.4" cy="375.9" r="5"/>
		<circle class="st20" cx="774.5" cy="457" r="5"/>
		<circle class="st20" cx="837.6" cy="520.4" r="5"/>
		<circle class="st20" cx="908.3" cy="591.2" r="5"/>
		<circle class="st20" cx="950.9" cy="681" r="5"/>
		<circle class="st20" cx="950.9" cy="743" r="5"/>
		<circle class="st20" cx="950.9" cy="758.3" r="5"/>
		<circle class="st20" cx="950.9" cy="774.6" r="5"/>
		<circle class="st20" cx="950.9" cy="830.5" r="5"/>
		<circle class="st20" cx="950.9" cy="847.3" r="5"/>
		<circle class="st20" cx="951.1" cy="865.3" r="5"/>
		<circle class="st20" cx="951.7" cy="879.1" r="5"/>
		<circle class="st20" cx="970.5" cy="894.4" r="5"/>
		<circle class="st20" cx="970" cy="912.7" r="5"/>
	</g>
	<g id="Станции_жёлтая">
		<circle class="st21" cx="1150.9" cy="392.5" r="5"/>
		<circle class="st21" cx="1133.7" cy="409.7" r="5"/>
		<circle class="st21" cx="1115.9" cy="427.5" r="5"/>
		<circle class="st21" cx="1097" cy="446.5" r="5"/>
		<circle class="st21" cx="1066.6" cy="476.8" r="5"/>
		<circle class="st21" cx="1004.2" cy="506.9" r="5"/>
		<circle class="st21" cx="946.5" cy="506.9" r="5"/>
		<circle class="st21" cx="837.6" cy="506.8" r="5"/>
		<circle class="st21" cx="367.6" cy="639.4" r="5"/>
		<circle class="st21" cx="367.6" cy="616.2" r="5"/>
		<circle class="st21" cx="367.7" cy="593.8" r="5"/>
		<circle class="st21" cx="400.9" cy="543.3" r="5"/>
		<circle class="st21" cx="568.4" cy="375.2" r="5"/>
	</g>
	<g id="Станции_светлозелёная">
		<circle class="st22" cx="769" cy="142.7" r="5"/>
		<circle class="st22" cx="781.6" cy="165.1" r="5"/>
		<circle class="st22" cx="781.4" cy="185.7" r="5"/>
		<circle class="st22" cx="781.6" cy="207.2" r="5"/>
		<circle class="st22" cx="781.4" cy="228.7" r="5"/>
		<circle class="st22" cx="811.3" cy="299.3" r="5"/>
		<circle class="st22" cx="871.1" cy="359.2" r="5"/>
		<circle class="st22" cx="977.3" cy="465.4" r="5"/>
		<circle class="st22" cx="1004" cy="492" r="5"/>
		<circle class="st22" cx="1004.2" cy="563.8" r="5"/>
		<circle class="st22" cx="983.9" cy="658.1" r="5"/>
		<circle class="st22" cx="983.9" cy="751.9" r="5"/>
		<circle class="st22" cx="983.9" cy="769.2" r="5"/>
		<circle class="st22" cx="983.9" cy="787.6" r="5"/>
		<circle class="st22" cx="983.9" cy="804.3" r="5"/>
		<circle class="st22" cx="983.8" cy="823.4" r="5"/>
		<circle class="st22" cx="983.8" cy="840.6" r="5"/>
		<circle class="st22" cx="983.9" cy="857.9" r="5"/>
		<circle class="st22" cx="983.8" cy="876.1" r="5"/>
		<circle class="st22" cx="983.9" cy="894.4" r="5"/>
	</g>
	<g id="Станции_рыжая">
		<circle class="st23" cx="871.1" cy="54.1" r="5"/>
		<circle class="st23" cx="870.9" cy="71.8" r="5"/>
		<circle class="st23" cx="871.1" cy="88.5" r="5"/>
		<circle class="st23" cx="871.1" cy="118.4" r="5"/>
		<circle class="st23" cx="870.9" cy="154.8" r="5"/>
		<circle class="st23" cx="871.1" cy="173.9" r="5"/>
		<circle class="st23" cx="871.1" cy="194.7" r="5"/>
		<circle class="st23" cx="870.9" cy="246.4" r="5"/>
		<circle class="st23" cx="870.9" cy="279.6" r="5"/>
		<circle class="st23" cx="871.1" cy="333" r="5"/>
		<circle class="st23" cx="871.1" cy="458.6" r="5"/>
		<circle class="st23" cx="837.6" cy="494.3" r="5"/>
		<circle class="st23" cx="712.3" cy="619.7" r="5"/>
		<circle class="st23" cx="712.3" cy="670.3" r="5"/>
		<circle class="st23" cx="712.3" cy="746.1" r="5"/>
		<circle class="st23" cx="712.3" cy="766" r="5"/>
		<circle class="st23" cx="712.3" cy="788.1" r="5"/>
		<circle class="st23" cx="712.3" cy="810.1" r="5"/>
		<circle class="st23" cx="712.3" cy="832.3" r="5"/>
		<circle class="st23" cx="712.3" cy="854.9" r="5"/>
		<circle class="st23" cx="712.3" cy="876.9" r="5"/>
		<circle class="st23" cx="713.2" cy="899.6" r="5"/>
		<circle class="st23" cx="728.5" cy="914.9" r="5"/>
		<circle class="st23" cx="746.3" cy="932.7" r="5"/>
	</g>
	<g id="Станции_серая">
		<circle class="st24" cx="794.3" cy="973.2" r="5"/>
		<circle class="st24" cx="826.6" cy="941.6" r="5"/>
		<circle class="st24" cx="826.6" cy="915.8" r="5"/>
		<circle class="st24" cx="826.6" cy="890.2" r="5"/>
		<circle class="st24" cx="826.6" cy="871.5" r="5"/>
		<circle class="st24" cx="826.3" cy="853.2" r="5"/>
		<circle class="st24" cx="826.3" cy="836.5" r="5"/>
		<circle class="st24" cx="826.6" cy="800.5" r="5"/>
		<circle class="st24" cx="826.6" cy="779.3" r="5"/>
		<circle class="st24" cx="826.6" cy="753.7" r="5"/>
		<circle class="st24" cx="826.6" cy="670.3" r="5"/>
		<circle class="st24" cx="826.5" cy="630" r="5"/>
		<circle class="st24" cx="786.7" cy="590.3" r="5"/>
		<circle class="st24" cx="693.4" cy="497" r="5"/>
		<circle class="st24" cx="693.4" cy="401.8" r="5"/>
		<circle class="st24" cx="797.1" cy="299.2" r="5"/>
		<circle class="st24" cx="753.1" cy="229.5" r="5"/>
		<circle class="st24" cx="753.1" cy="207.2" r="5"/>
		<circle class="st24" cx="753.1" cy="185.3" r="5"/>
		<circle class="st24" cx="753.1" cy="164.8" r="5"/>
		<circle class="st24" cx="753.1" cy="142.7" r="5"/>
		<circle class="st24" cx="753.1" cy="106" r="5"/>
		<circle class="st24" cx="753.1" cy="89.8" r="5"/>
		<circle class="st24" cx="753.1" cy="71.8" r="5"/>
		<circle class="st24" cx="753.1" cy="54.1" r="5"/>
	</g>
	<g id="Станции_фиолетовая">
		<circle class="st25" cx="548.8" cy="53" r="5"/>
		<circle class="st25" cx="548.8" cy="72.3" r="5"/>
		<circle class="st25" cx="548.8" cy="89.8" r="5"/>
		<circle class="st25" cx="548.8" cy="108" r="5"/>
		<circle class="st25" cx="548.8" cy="125.5" r="5"/>
		<circle class="st25" cx="549.3" cy="243.8" r="5"/>
		<circle class="st25" cx="529.6" cy="275.7" r="5"/>
		<circle class="st25" cx="581.2" cy="275.7" r="5"/>
		<circle class="st25" cx="633.6" cy="328.1" r="5"/>
		<circle class="st25" cx="693.4" cy="388.8" r="5"/>
		<circle class="st25" cx="815.5" cy="388.8" r="5"/>
		<circle class="st25" cx="871.1" cy="444.4" r="5"/>
		<circle class="st25" cx="946.5" cy="519.8" r="5"/>
		<circle class="st25" cx="1004.2" cy="577.5" r="5"/>
		<circle class="st25" cx="1029.3" cy="602.6" r="5"/>
		<circle class="st25" cx="1073" cy="646.3" r="5"/>
		<circle class="st25" cx="1090.6" cy="663.9" r="5"/>
		<circle class="st25" cx="1107.2" cy="680.5" r="5"/>
		<circle class="st25" cx="1107.2" cy="701.2" r="5"/>
		<circle class="st25" cx="1107.2" cy="719.6" r="5"/>
		<circle class="st25" cx="1107.2" cy="737" r="5"/>
		<circle class="st25" cx="1107.2" cy="754.5" r="5"/>
	</g>
	<g id="Станции_голубая">
		<circle class="st26" cx="693.4" cy="483.9" r="5"/>
		<circle class="st26" cx="667.2" cy="457.6" r="5"/>
		<circle class="st26" cx="640.2" cy="430.7" r="5"/>
		<circle class="st26" cx="597.8" cy="388.8" r="5"/>
		<circle class="st26" cx="568.4" cy="360.3" r="5"/>
		<circle class="st26" cx="481.6" cy="360.3" r="5"/>
		<circle class="st26" cx="527.6" cy="434.5" r="5"/>
		<circle class="st26" cx="481.5" cy="481.9" r="5"/>
		<circle class="st26" cx="367.9" cy="454.7" r="5"/>
		<circle class="st26" cx="367.9" cy="436.8" r="5"/>
		<circle class="st26" cx="367.9" cy="418.8" r="5"/>
		<circle class="st26" cx="367.9" cy="402" r="5"/>
		<circle class="st26" cx="346" cy="372.1" r="5"/>
	</g>
	<g id="Станции_светлоголубая">
		<circle class="st27" cx="784.3" cy="983.2" r="5"/>
		<circle class="st27" cx="763.7" cy="962.5" r="5"/>
		<circle class="st27" cx="746.3" cy="945.1" r="5"/>
		<circle class="st27" cx="785.7" cy="1002.8" r="5"/>
		<circle class="st27" cx="785.7" cy="1020.7" r="5"/>
		<circle class="st27" cx="785.7" cy="1038" r="5"/>
		<circle class="st27" cx="785.7" cy="1055.7" r="5"/>
	</g>
	<g id="Станции_бюрюзовая">
		<circle class="st28" cx="826.3" cy="823.7" r="5"/>
		<circle class="st28" cx="879.7" cy="808.5" r="5"/>
		<circle class="st28" cx="950.9" cy="788.3" r="5"/>
	</g>
	<g id="Станции_коричневая">
		<circle class="st29" cx="753.4" cy="241.2" r="5"/>
		<circle class="st29" cx="871.1" cy="257.9" r="5"/>
		<circle class="st29" cx="929.2" cy="301.6" r="5"/>
		<circle class="st29" cx="977.3" cy="451.2" r="5"/>
		<circle class="st29" cx="946.8" cy="532.7" r="5"/>
		<circle class="st29" cx="908.4" cy="577.5" r="5"/>
		<circle class="st29" cx="826.5" cy="617" r="5"/>
		<circle class="st29" cx="712.3" cy="605.6" r="5"/>
		<circle class="st29" cx="645.7" cy="558.5" r="5"/>
		<circle class="st29" cx="597.8" cy="401.9" r="5"/>
		<circle class="st29" cx="633.6" cy="316.1" r="5"/>
		<circle class="st29" cx="693.5" cy="263.1" r="5"/>
	</g>
	<g id="Станции_розовая">
		<circle class="st30" cx="727.8" cy="124.7" r="5"/>
		<circle class="st30" cx="753.1" cy="120.9" r="5"/>
		<circle class="st30" cx="871.1" cy="130.1" r="5"/>
		<circle class="st30" cx="940.1" cy="159.1" r="5"/>
		<circle class="st30" cx="969.2" cy="177" r="5"/>
		<circle class="st30" cx="996.3" cy="199.7" r="5"/>
		<circle class="st30" cx="1015.3" cy="218.3" r="5"/>
		<circle class="st30" cx="1079.7" cy="321" r="5"/>
		<circle class="st30" cx="1097" cy="459.8" r="5"/>
		<circle class="st30" cx="1084.5" cy="521.6" r="5"/>
		<circle class="st30" cx="1092.4" cy="492" r="5"/>
		<circle class="st30" cx="1074.7" cy="547.9" r="5"/>
		<circle class="st30" cx="1027.1" cy="628.6" r="5"/>
		<circle class="st30" cx="984" cy="671.9" r="5"/>
		<circle class="st30" cx="950.9" cy="694.5" r="5"/>
		<circle class="st30" cx="903.9" cy="718.9" r="5"/>
		<circle class="st30" cx="826.4" cy="739.1" r="5"/>
		<circle class="st30" cx="784" cy="741.5" r="5"/>
		<circle class="st30" cx="712.3" cy="732.5" r="5"/>
		<circle class="st30" cx="561.8" cy="645" r="5"/>
		<circle class="st30" cx="481.5" cy="493.5" r="5"/>
		<circle class="st30" cx="481.6" cy="373.1" r="5"/>
		<circle class="st30" cx="495.6" cy="322.6" r="5"/>
		<circle class="st30" cx="517.1" cy="275.6" r="5"/>
		<circle class="st30" cx="527.1" cy="259.4" r="5"/>
		<circle class="st30" cx="538" cy="243.8" r="5"/>
		<circle class="st30" cx="568.2" cy="209.2" r="5"/>
		<circle class="st30" cx="641.4" cy="155.2" r="5"/>
		<circle class="st30" cx="679.8" cy="138" r="5"/>
		<circle class="st30" cx="704.7" cy="130.1" r="5"/>
	</g>
</g>
<text transform="matrix(1.0907 0 0 1 880.8604 58.3398)" class="st31 st32">Медведково</text>
<text transform="matrix(1 0 0 1 1021.3 203.6)" class="st33 st34">Бульвар Рокоссовского</text>
<text transform="matrix(1 0 0 1 912.6668 220.7)" class="st33 st34">Черкизовская</text>
<text transform="matrix(1 0 0 1 990.1915 243.6962)" class="st33 st34">Преображенская площадь</text>
<text transform="matrix(1 0 0 1 974.2 261.3694)" class="st33 st34">Сокольники</text>
<text transform="matrix(1 0 0 1 954.2 279.6)" class="st33 st34">Красносельская</text>
<text transform="matrix(1 0 0 1 938.5 301.0061)" class="st33 st34">Комсомольская</text>
<text transform="matrix(1 0 0 1 905.05 328.8)" class="st33 st34">Красные Ворота</text>
<text transform="matrix(1 0 0 1 786.6 349.6998)" class="st33 st34">Чистые пруды</text>
<text transform="matrix(1 0 0 1 762.8803 407.2)" class="st33 st34">Лубянка</text>
<text transform="matrix(1 0 0 1 783.8831 446.2)" class="st33 st34">Охотный ряд</text>
<text transform="matrix(1 0 0 1 544.7 527.4002)" class="st33 st34">Библиотека имени Ленина</text>
<text transform="matrix(1 0 0 1 560.5701 568.0002)" class="st33 st34">Парк культуры</text>
<text transform="matrix(1 0 0 1 683.2045 550.8)" class="st33 st34">Кропоткинская</text>
<text transform="matrix(1 0 0 1 527.6 616.5)" class="st33 st34">Фрунзенская</text>
<text transform="matrix(1 0 0 1 571.4286 661.8)" class="st33 st34">Спортивная</text>
<text transform="matrix(1 0 0 1 446.3333 678.0339)" class="st33 st34">Воробьёвы горы</text>
<text transform="matrix(1 0 0 1 449.3332 696.667)" class="st33 st34">Университет</text>
<text transform="matrix(1 0 0 1 380.6665 712.667)" class="st33 st34">Проспект Вернадского</text>
<text transform="matrix(1 0 0 1 424.3332 737.5)" class="st33 st34">Юго-Западная</text>
<text transform="matrix(1 0 0 1 441.9998 755.5)" class="st33 st34">Тропарёво</text>
<text transform="matrix(1 0 0 1 440.9998 773.2)" class="st33 st34">Румянцево</text>
<text transform="matrix(1 0 0 1 441.9998 792.3)" class="st33 st34">Саларьево</text>
</svg>
